<svg width="314" height="471" viewBox="0 0 314 471" fill="none" xmlns="http://www.w3.org/2000/svg">
<path fill-rule="evenodd" clip-rule="evenodd" d="M1.63696 8.20351C0 11.4174 0 15.6247 0 24.0392V446.961C0 455.375 0 459.581 1.63696 462.796C3.07687 465.623 5.37446 467.922 8.20046 469.361C11.4132 471 15.6189 471 24.0303 471H289.97C298.381 471 302.587 471 305.8 469.361C308.626 467.922 310.923 465.623 312.363 462.796C314 459.581 314 455.375 314 446.961V24.0392C314 15.6247 314 11.4174 312.363 8.20351C310.923 5.37646 308.626 3.07802 305.8 1.63757C302.587 0 298.381 0 289.97 0H24.0303C15.6189 0 11.4132 0 8.20046 1.63757C5.37446 3.07802 3.07687 5.37646 1.63696 8.20351ZM125.565 15.0245C122.575 15.0245 120.151 17.4492 120.151 20.4403C120.151 23.4313 122.575 25.8561 125.565 25.8561H187.736C190.726 25.8561 193.15 23.4313 193.15 20.4403C193.15 17.4492 190.726 15.0245 187.736 15.0245H125.565Z" fill="white"/>
</svg>
