<svg width="253" height="471" viewBox="0 0 253 471" fill="none" xmlns="http://www.w3.org/2000/svg">
<path fill-rule="evenodd" clip-rule="evenodd" d="M40.0129 0.1709C40.0129 6.30597 35.0366 11.2794 28.8982 11.2794C22.7597 11.2794 17.7835 6.30597 17.7835 0.1709C17.7835 0.113832 17.784 0.0568642 17.7848 0H0V471H17.7848C17.784 470.942 17.7835 470.887 17.7835 470.829C17.7835 464.694 22.7597 459.721 28.8982 459.721C35.0366 459.721 40.0129 464.694 40.0129 470.829C40.0129 470.887 40.0125 470.942 40.0115 471H58.1398C58.1387 470.942 58.1384 470.887 58.1384 470.829C58.1384 464.694 63.1147 459.721 69.2531 459.721C75.3915 459.721 80.3678 464.694 80.3678 470.829V470.856L80.3674 470.911L80.3671 470.942L80.3664 471H95.7573C95.7573 454.201 109.385 440.58 126.194 440.58C143.004 440.58 156.632 454.201 156.632 471H171.681C171.68 470.942 171.679 470.887 171.679 470.829C171.679 464.694 176.656 459.721 182.794 459.721C188.932 459.721 193.909 464.694 193.909 470.829C193.909 470.887 193.908 470.942 193.907 471H212.035C212.035 470.969 212.035 470.942 212.034 470.911C212.034 470.884 212.034 470.856 212.034 470.829C212.034 464.694 217.01 459.721 223.149 459.721C229.287 459.721 234.263 464.694 234.263 470.829C234.263 470.887 234.263 470.942 234.262 471H252.389V0H234.262C234.263 0.0568642 234.263 0.113832 234.263 0.1709C234.263 6.30597 229.287 11.2794 223.149 11.2794C217.01 11.2794 212.034 6.30597 212.034 0.1709C212.034 0.113832 212.034 0.0568642 212.035 0H193.907C193.908 0.0568642 193.909 0.113832 193.909 0.1709C193.909 6.30597 188.932 11.2794 182.794 11.2794C176.656 11.2794 171.679 6.30597 171.679 0.1709C171.679 0.113832 171.68 0.0568642 171.681 0H156.632C156.632 16.8006 143.004 30.4202 126.194 30.4202C109.385 30.4202 95.7573 16.8006 95.7573 0H80.3664C80.3674 0.0568642 80.3678 0.113832 80.3678 0.1709C80.3678 6.30597 75.3915 11.2794 69.2531 11.2794C63.1147 11.2794 58.1384 6.30597 58.1384 0.1709C58.1384 0.113832 58.1387 0.0568642 58.1398 0H40.0115C40.0125 0.0568642 40.0129 0.113832 40.0129 0.1709Z" fill="white"/>
</svg>
