<svg width="263" height="471" viewBox="0 0 263 471" fill="none" xmlns="http://www.w3.org/2000/svg">
<path fill-rule="evenodd" clip-rule="evenodd" d="M131.061 459.406C124.648 459.406 119.45 464.597 119.45 471H23.2229C15.0942 471 11.0297 471 7.92497 469.42C5.19393 468.032 2.97349 465.815 1.58196 463.087C0 459.986 0 455.928 0 447.812V382.307C6.41284 382.307 11.6115 377.116 11.6115 370.713C11.6115 364.311 6.41284 359.119 0 359.119V23.1877C0 15.0712 0 11.013 1.58196 7.91292C2.97349 5.18601 5.19393 2.96898 7.92497 1.57958C11.0297 0 15.0942 0 23.2229 0H238.906C247.035 0 251.099 0 254.204 1.57958C256.935 2.96898 259.156 5.18601 260.547 7.91292C262.129 11.013 262.129 15.0712 262.129 23.1877V359.119C255.716 359.119 250.518 364.311 250.518 370.713C250.518 377.116 255.716 382.307 262.129 382.307V447.812C262.129 455.928 262.129 459.986 260.547 463.087C259.156 465.815 256.935 468.032 254.204 469.42C251.099 471 247.035 471 238.906 471H142.673C142.673 464.597 137.474 459.406 131.061 459.406ZM238.906 370.713C238.906 368.313 240.856 366.366 243.26 366.366C245.665 366.366 247.615 368.313 247.615 370.713C247.615 373.113 245.665 375.061 243.26 375.061C240.856 375.061 238.906 373.113 238.906 370.713ZM231.649 366.366C229.244 366.366 227.295 368.313 227.295 370.713C227.295 373.113 229.244 375.061 231.649 375.061C234.054 375.061 236.003 373.113 236.003 370.713C236.003 368.313 234.054 366.366 231.649 366.366ZM215.683 370.713C215.683 368.313 217.633 366.366 220.037 366.366C222.442 366.366 224.392 368.313 224.392 370.713C224.392 373.113 222.442 375.061 220.037 375.061C217.633 375.061 215.683 373.113 215.683 370.713ZM208.426 366.366C206.021 366.366 204.072 368.313 204.072 370.713C204.072 373.113 206.021 375.061 208.426 375.061C210.831 375.061 212.78 373.113 212.78 370.713C212.78 368.313 210.831 366.366 208.426 366.366ZM192.46 370.713C192.46 368.313 194.41 366.366 196.814 366.366C199.219 366.366 201.169 368.313 201.169 370.713C201.169 373.113 199.219 375.061 196.814 375.061C194.41 375.061 192.46 373.113 192.46 370.713ZM185.203 366.366C182.798 366.366 180.849 368.313 180.849 370.713C180.849 373.113 182.798 375.061 185.203 375.061C187.608 375.061 189.557 373.113 189.557 370.713C189.557 368.313 187.608 366.366 185.203 366.366ZM169.237 370.713C169.237 368.313 171.187 366.366 173.592 366.366C175.996 366.366 177.946 368.313 177.946 370.713C177.946 373.113 175.996 375.061 173.592 375.061C171.187 375.061 169.237 373.113 169.237 370.713ZM150.369 366.366C147.964 366.366 146.014 368.313 146.014 370.713C146.014 373.113 147.964 375.061 150.369 375.061C152.773 375.061 154.723 373.113 154.723 370.713C154.723 368.313 152.773 366.366 150.369 366.366ZM157.626 370.713C157.626 368.313 159.575 366.366 161.98 366.366C164.385 366.366 166.334 368.313 166.334 370.713C166.334 373.113 164.385 375.061 161.98 375.061C159.575 375.061 157.626 373.113 157.626 370.713ZM130.919 360.279C124.667 360.279 119.598 365.339 119.598 371.583C119.598 377.667 124.411 382.626 130.442 382.878C130.713 382.93 130.993 382.956 131.28 382.956C131.721 382.956 132.146 382.893 132.547 382.771C138.028 381.982 142.241 377.275 142.241 371.583C142.241 365.339 137.172 360.279 130.919 360.279ZM107.116 369.844C107.116 367.444 109.065 365.496 111.47 365.496C113.875 365.496 115.824 367.444 115.824 369.844C115.824 372.244 113.875 374.191 111.47 374.191C109.065 374.191 107.116 372.244 107.116 369.844ZM99.8587 365.496C97.4539 365.496 95.5044 367.444 95.5044 369.844C95.5044 372.244 97.4539 374.191 99.8587 374.191C102.263 374.191 104.213 372.244 104.213 369.844C104.213 367.444 102.263 365.496 99.8587 365.496ZM83.8929 369.844C83.8929 367.444 85.8425 365.496 88.2472 365.496C90.6519 365.496 92.6015 367.444 92.6015 369.844C92.6015 372.244 90.6519 374.191 88.2472 374.191C85.8425 374.191 83.8929 372.244 83.8929 369.844ZM76.6357 365.496C74.231 365.496 72.2814 367.444 72.2814 369.844C72.2814 372.244 74.231 374.191 76.6357 374.191C79.0405 374.191 80.99 372.244 80.99 369.844C80.99 367.444 79.0405 365.496 76.6357 365.496ZM60.6699 369.844C60.6699 367.444 62.6195 365.496 65.0242 365.496C67.429 365.496 69.3785 367.444 69.3785 369.844C69.3785 372.244 67.429 374.191 65.0242 374.191C62.6195 374.191 60.6699 372.244 60.6699 369.844ZM53.4128 365.496C51.008 365.496 49.0585 367.444 49.0585 369.844C49.0585 372.244 51.008 374.191 53.4128 374.191C55.8175 374.191 57.7671 372.244 57.7671 369.844C57.7671 367.444 55.8175 365.496 53.4128 365.496ZM37.447 369.844C37.447 367.444 39.3966 365.496 41.8013 365.496C44.206 365.496 46.1556 367.444 46.1556 369.844C46.1556 372.244 44.206 374.191 41.8013 374.191C39.3966 374.191 37.447 372.244 37.447 369.844ZM18.5784 365.496C16.1735 365.496 14.2241 367.444 14.2241 369.844C14.2241 372.244 16.1735 374.191 18.5784 374.191C20.9832 374.191 22.9327 372.244 22.9327 369.844C22.9327 367.444 20.9832 365.496 18.5784 365.496ZM25.8355 369.844C25.8355 367.444 27.785 365.496 30.1898 365.496C32.5946 365.496 34.5441 367.444 34.5441 369.844C34.5441 372.244 32.5946 374.191 30.1898 374.191C27.785 374.191 25.8355 372.244 25.8355 369.844ZM126.926 390.202C126.926 392.605 128.876 394.55 131.28 394.55C133.685 394.55 135.635 392.605 135.635 390.202C135.635 387.803 133.685 385.855 131.28 385.855C128.876 385.855 126.926 387.803 126.926 390.202ZM126.926 401.796C126.926 404.199 128.876 406.144 131.28 406.144C133.685 406.144 135.635 404.199 135.635 401.796C135.635 399.396 133.685 397.449 131.28 397.449C128.876 397.449 126.926 399.396 126.926 401.796ZM131.28 417.738C128.876 417.738 126.926 415.793 126.926 413.39C126.926 410.99 128.876 409.042 131.28 409.042C133.685 409.042 135.635 410.99 135.635 413.39C135.635 415.793 133.685 417.738 131.28 417.738ZM126.926 424.984C126.926 427.387 128.876 429.332 131.28 429.332C133.685 429.332 135.635 427.387 135.635 424.984C135.635 422.584 133.685 420.636 131.28 420.636C128.876 420.636 126.926 422.584 126.926 424.984ZM131.28 440.926C128.876 440.926 126.926 438.981 126.926 436.578C126.926 434.178 128.876 432.23 131.28 432.23C133.685 432.23 135.635 434.178 135.635 436.578C135.635 438.981 133.685 440.926 131.28 440.926ZM126.926 448.172C126.926 450.575 128.876 452.519 131.28 452.519C133.685 452.519 135.635 450.575 135.635 448.172C135.635 445.772 133.685 443.824 131.28 443.824C128.876 443.824 126.926 445.772 126.926 448.172Z" fill="white"/>
</svg>
