<svg width="166" height="91" viewBox="0 0 166 91" fill="none" xmlns="http://www.w3.org/2000/svg">
<path fill-rule="evenodd" clip-rule="evenodd" d="M48.0241 -24.2719C50.69 -23.568 53.5797 -25.678 54.4787 -28.9846C54.5711 -29.3246 54.6389 -29.6639 54.6834 -30L153.068 -4.02091C151.621 5.88863 156.299 15.0142 164.364 17.1438C164.907 17.287 165.453 17.3954 166 17.4699L163.531 26.5495H163.53C160.865 25.8456 157.975 27.9555 157.076 31.262C156.177 34.5689 157.609 37.82 160.274 38.5239H160.275L157.833 47.5052L157.831 47.5048C155.165 46.8008 152.276 48.9108 151.377 52.2177C150.478 55.5241 151.909 58.7753 154.575 59.4792L154.577 59.4801L152.136 68.46C149.47 67.7565 146.581 69.8665 145.682 73.1729C144.783 76.4789 146.215 79.73 148.88 80.4344L146.438 89.4157H146.437C143.772 88.7117 140.882 90.8217 139.983 94.1281C139.084 97.4351 140.516 100.686 143.181 101.39H143.182L140.74 110.371C138.075 109.667 135.185 111.777 134.286 115.083C133.387 118.39 134.819 121.641 137.484 122.345L135.042 131.326C132.377 130.623 129.488 132.733 128.589 136.039C127.69 139.345 129.122 142.596 131.787 143.301L129.345 152.282C129.344 152.282 129.344 152.281 129.344 152.281C126.678 151.577 123.789 153.687 122.89 156.994C121.991 160.301 123.423 163.552 126.088 164.256C126.088 164.256 126.089 164.256 126.089 164.256L123.647 173.237C115.582 171.107 106.901 176.705 103.127 186L3.19925 159.613C4.09832 156.307 2.66626 153.056 0.0006544 152.352L0 152.351L2.44185 143.371C5.10738 144.074 7.99701 141.965 8.89608 138.658C9.79515 135.352 8.36317 132.1 5.69771 131.397L8.13969 122.415H8.14113C10.8067 123.119 13.6964 121.009 14.5956 117.703C15.4946 114.396 14.0625 111.145 11.397 110.441L11.3956 110.44L13.8374 101.46H13.838C16.5036 102.164 19.3933 100.054 20.2924 96.7476C21.1915 93.4407 19.7594 90.1896 17.0938 89.4856H17.0932L19.5351 80.5048C22.2006 81.2088 25.0902 79.0988 25.9893 75.7919C26.8883 72.4855 25.4563 69.2343 22.7909 68.5304L25.2327 59.5496C27.898 60.2526 30.7872 58.1431 31.6861 54.8367C32.5851 51.5307 31.1535 48.2796 28.4886 47.5752L30.9306 38.5939H30.9311C33.5967 39.2978 36.4865 37.1879 37.3856 33.8815C38.2846 30.5745 36.8526 27.3234 34.187 26.6195H34.1865L36.6284 17.6382L36.6306 17.6387C39.2962 18.3426 42.1859 16.2327 43.085 12.9261C43.9841 9.6194 42.552 6.36824 39.8864 5.66437L39.8843 5.66378L42.3259 -3.31626C44.9915 -2.61321 47.8802 -4.72309 48.7792 -8.02927C49.6782 -11.3355 48.2469 -14.5863 45.5818 -15.2907L48.0236 -24.272L48.0241 -24.2719Z" fill="url(#paint0_linear_1062_6630)"/>
<defs>
<linearGradient id="paint0_linear_1062_6630" x1="84.4022" y1="60.5577" x2="114.699" y2="248.486" gradientUnits="userSpaceOnUse">
<stop stop-color="white"/>
<stop offset="1" stop-color="#6D6D6D"/>
</linearGradient>
</defs>
</svg>
