<svg width="20" height="20" viewBox="0 0 20 20" fill="none" xmlns="http://www.w3.org/2000/svg">
<path d="M12.5 17.5V13.2666C12.5 12.7066 12.5 12.4265 12.391 12.2126C12.2951 12.0245 12.1422 11.8715 11.954 11.7756C11.7401 11.6666 11.4601 11.6666 10.9 11.6666H9.1C8.53995 11.6666 8.25992 11.6666 8.04601 11.7756C7.85785 11.8715 7.70487 12.0245 7.60899 12.2126C7.5 12.4265 7.5 12.7066 7.5 13.2666V17.5" stroke="white" stroke-width="1.5" stroke-linecap="round" stroke-linejoin="round"/>
<path d="M2.5 5.83337C2.5 7.21409 3.61929 8.33337 5 8.33337C6.38071 8.33337 7.5 7.21409 7.5 5.83337C7.5 7.21409 8.61929 8.33337 10 8.33337C11.3807 8.33337 12.5 7.21409 12.5 5.83337C12.5 7.21409 13.6193 8.33337 15 8.33337C16.3807 8.33337 17.5 7.21409 17.5 5.83337" stroke="white" stroke-width="1.5" stroke-linecap="round" stroke-linejoin="round"/>
<path d="M2.5 5.7C2.5 4.57989 2.5 4.01984 2.71799 3.59202C2.90973 3.21569 3.21569 2.90973 3.59202 2.71799C4.01984 2.5 4.57989 2.5 5.7 2.5H14.3C15.4201 2.5 15.9802 2.5 16.408 2.71799C16.7843 2.90973 17.0903 3.21569 17.282 3.59202C17.5 4.01984 17.5 4.57989 17.5 5.7V14.3C17.5 15.4201 17.5 15.9802 17.282 16.408C17.0903 16.7843 16.7843 17.0903 16.408 17.282C15.9802 17.5 15.4201 17.5 14.3 17.5H5.7C4.57989 17.5 4.01984 17.5 3.59202 17.282C3.21569 17.0903 2.90973 16.7843 2.71799 16.408C2.5 15.9802 2.5 15.4201 2.5 14.3V5.7Z" stroke="white" stroke-width="1.5" stroke-linecap="round" stroke-linejoin="round"/>
</svg>
