<svg width="16" height="16" viewBox="0 0 16 16" fill="none" xmlns="http://www.w3.org/2000/svg">
<path d="M5.3335 10.6666V12.5333C5.3335 13.28 5.3335 13.6534 5.47882 13.9386C5.60665 14.1895 5.81063 14.3934 6.06151 14.5213C6.34672 14.6666 6.72009 14.6666 7.46683 14.6666H12.5335C13.2802 14.6666 13.6536 14.6666 13.9388 14.5213C14.1897 14.3934 14.3937 14.1895 14.5215 13.9386C14.6668 13.6534 14.6668 13.28 14.6668 12.5333V7.46658C14.6668 6.71985 14.6668 6.34648 14.5215 6.06126C14.3937 5.81038 14.1897 5.60641 13.9388 5.47858C13.6536 5.33325 13.2802 5.33325 12.5335 5.33325H10.6668M3.46683 10.6666H8.5335C9.28023 10.6666 9.6536 10.6666 9.93882 10.5213C10.1897 10.3934 10.3937 10.1895 10.5215 9.93857C10.6668 9.65336 10.6668 9.27999 10.6668 8.53325V3.46659C10.6668 2.71985 10.6668 2.34648 10.5215 2.06126C10.3937 1.81038 10.1897 1.60641 9.93882 1.47858C9.6536 1.33325 9.28023 1.33325 8.5335 1.33325H3.46683C2.72009 1.33325 2.34672 1.33325 2.06151 1.47858C1.81063 1.60641 1.60665 1.81038 1.47882 2.06126C1.3335 2.34648 1.3335 2.71985 1.3335 3.46659V8.53325C1.3335 9.27999 1.3335 9.65336 1.47882 9.93857C1.60665 10.1895 1.81063 10.3934 2.06151 10.5213C2.34672 10.6666 2.72009 10.6666 3.46683 10.6666Z" stroke="black" stroke-width="1.5" stroke-linecap="round" stroke-linejoin="round"/>
</svg>
