<svg width="20" height="20" viewBox="0 0 20 20" fill="none" xmlns="http://www.w3.org/2000/svg">
<g opacity="0.5" clip-path="url(#clip0_1453_7539)">
<path d="M4.71249 7.08337C4.71249 7.49777 4.87711 7.8952 5.17014 8.18823C5.46317 8.48125 5.86059 8.64587 6.27499 8.64587C6.68939 8.64587 7.08682 8.48125 7.37985 8.18823C7.67287 7.8952 7.83749 7.49777 7.83749 7.08337C7.83749 6.66897 7.67287 6.27155 7.37985 5.97852C7.08682 5.68549 6.68939 5.52087 6.27499 5.52087C5.86059 5.52087 5.46317 5.68549 5.17014 5.97852C4.87711 6.27155 4.71249 6.66897 4.71249 7.08337Z" stroke="white" stroke-linecap="round" stroke-linejoin="round"/>
<path d="M17.2084 14.1292L13.565 8.66667C13.5015 8.57161 13.4157 8.49348 13.3151 8.43904C13.2146 8.38461 13.1022 8.35552 12.9879 8.35429C12.8736 8.35306 12.7606 8.37972 12.6589 8.43198C12.5572 8.48423 12.4698 8.5605 12.4042 8.65417L10.5333 11.3333L9.37502 10.4025C9.29893 10.3415 9.211 10.2971 9.1168 10.272C9.02261 10.2468 8.92422 10.2416 8.82789 10.2566C8.73155 10.2715 8.63939 10.3064 8.55727 10.3589C8.47514 10.4115 8.40484 10.4805 8.35085 10.5617L5.96335 14.145" stroke="white" stroke-linecap="round" stroke-linejoin="round"/>
<path d="M2.25 2.51917C1.91848 2.51917 1.60054 2.65086 1.36612 2.88528C1.1317 3.1197 1 3.43764 1 3.76916V16.2308C1 16.5623 1.1317 16.8803 1.36612 17.1147C1.60054 17.3491 1.91848 17.4808 2.25 17.4808H18.5C18.8315 17.4808 19.1495 17.3491 19.3839 17.1147C19.6183 16.8803 19.75 16.5623 19.75 16.2308V6.23083C19.75 5.90483 19.6226 5.59175 19.395 5.35833L16.9925 2.89583C16.876 2.77652 16.7368 2.68173 16.5831 2.61704C16.4294 2.55235 16.2643 2.51907 16.0975 2.51917H2.25Z" stroke="white" stroke-linecap="round" stroke-linejoin="round"/>
</g>
<defs>
<clipPath id="clip0_1453_7539">
<rect width="20" height="20" fill="white"/>
</clipPath>
</defs>
</svg>
