<svg width="23" height="24" viewBox="0 0 23 24" fill="none" xmlns="http://www.w3.org/2000/svg">
<path d="M8.5 7.75C8.5 8.54565 8.81607 9.30871 9.37868 9.87132C9.94129 10.4339 10.7044 10.75 11.5 10.75C12.2956 10.75 13.0587 10.4339 13.6213 9.87132C14.1839 9.30871 14.5 8.54565 14.5 7.75C14.5 6.95435 14.1839 6.19129 13.6213 5.62868C13.0587 5.06607 12.2956 4.75 11.5 4.75C10.7044 4.75 9.94129 5.06607 9.37868 5.62868C8.81607 6.19129 8.5 6.95435 8.5 7.75V7.75Z" stroke="#333333" stroke-width="1.5" stroke-linecap="round" stroke-linejoin="round"/>
<path d="M11.5 1C13.2902 1 15.0071 1.71116 16.273 2.97703C17.5388 4.2429 18.25 5.95979 18.25 7.75C18.25 11.001 13.118 18.277 11.804 20.087C11.769 20.1347 11.7232 20.1736 11.6704 20.2003C11.6176 20.2271 11.5592 20.241 11.5 20.241C11.4408 20.241 11.3824 20.2271 11.3296 20.2003C11.2768 20.1736 11.231 20.1347 11.196 20.087C9.882 18.277 4.75 11.001 4.75 7.75C4.75 5.95979 5.46116 4.2429 6.72703 2.97703C7.9929 1.71116 9.70979 1 11.5 1V1Z" stroke="#333333" stroke-width="1.5" stroke-linecap="round" stroke-linejoin="round"/>
<path d="M17.479 18.034C20.211 18.575 22 19.478 22 20.5C22 22.157 17.3 23.5 11.5 23.5C5.7 23.5 1 22.157 1 20.5C1 19.48 2.781 18.579 5.5 18.037" stroke="#333333" stroke-width="1.5" stroke-linecap="round" stroke-linejoin="round"/>
</svg>
