<svg width="21" height="21" viewBox="0 0 21 21" fill="none" xmlns="http://www.w3.org/2000/svg">
<path d="M6.49722 1.5H6.29733C4.61811 1.5 3.7785 1.5 3.13712 1.82698C2.57295 2.1146 2.11426 2.57354 1.8268 3.13803C1.5 3.77976 1.5 4.61984 1.5 6.3V6.5M6.49722 19.5H6.29733C4.61811 19.5 3.7785 19.5 3.13712 19.173C2.57295 18.8854 2.11426 18.4265 1.8268 17.862C1.5 17.2202 1.5 16.3802 1.5 14.7V14.5M19.49 6.5V6.3C19.49 4.61984 19.49 3.77976 19.1632 3.13803C18.8757 2.57354 18.4171 2.1146 17.8529 1.82698C17.2115 1.5 16.3719 1.5 14.6927 1.5H14.4928M19.49 14.5V14.7C19.49 16.3802 19.49 17.2202 19.1632 17.862C18.8757 18.4265 18.4171 18.8854 17.8529 19.173C17.2115 19.5 16.3719 19.5 14.6927 19.5H14.4928M1.5 10.5H1.50999M5.9975 10.5H6.0075M14.9925 10.5H15.0025M10.495 10.5H10.505M19.49 10.5H19.5" stroke="white" stroke-width="2" stroke-linecap="round" stroke-linejoin="round"/>
</svg>
