<svg width="20" height="20" viewBox="0 0 20 20" fill="none" xmlns="http://www.w3.org/2000/svg">
<path d="M8.33331 6.66671V5.83337" stroke="white" stroke-width="1.5" stroke-linecap="round" stroke-linejoin="round"/>
<path d="M8.33331 10.4167V9.58337" stroke="white" stroke-width="1.5" stroke-linecap="round" stroke-linejoin="round"/>
<path d="M8.33331 14.1667V13.3334" stroke="white" stroke-width="1.5" stroke-linecap="round" stroke-linejoin="round"/>
<path d="M15.1334 3.33337H4.86669C3.74658 3.33337 3.18653 3.33337 2.75871 3.55136C2.38238 3.74311 2.07642 4.04907 1.88467 4.42539C1.66669 4.85322 1.66669 5.41327 1.66669 6.53337V7.08337C3.27752 7.08337 4.58335 8.38921 4.58335 10C4.58335 11.6109 3.27752 12.9167 1.66669 12.9167V13.4667C1.66669 14.5868 1.66669 15.1469 1.88467 15.5747C2.07642 15.951 2.38238 16.257 2.75871 16.4487C3.18653 16.6667 3.74658 16.6667 4.86669 16.6667H15.1334C16.2535 16.6667 16.8135 16.6667 17.2413 16.4487C17.6177 16.257 17.9236 15.951 18.1154 15.5747C18.3334 15.1469 18.3334 14.5868 18.3334 13.4667V12.9167C16.7225 12.9167 15.4167 11.6109 15.4167 10C15.4167 8.38921 16.7225 7.08337 18.3334 7.08337V6.53337C18.3334 5.41327 18.3334 4.85322 18.1154 4.42539C17.9236 4.04907 17.6177 3.74311 17.2413 3.55136C16.8135 3.33337 16.2535 3.33337 15.1334 3.33337Z" stroke="white" stroke-width="1.5" stroke-linecap="round" stroke-linejoin="round"/>
</svg>
