<svg width="20" height="20" viewBox="0 0 20 20" fill="none" xmlns="http://www.w3.org/2000/svg">
<path d="M13.3333 6.66663V4.16728C13.3333 3.33554 13.3333 2.91967 13.1581 2.6641C13.005 2.44081 12.768 2.28912 12.5011 2.24371C12.1956 2.19173 11.818 2.366 11.0628 2.71455L4.35901 5.80862C3.68551 6.11947 3.34875 6.27489 3.10211 6.51594C2.88406 6.72904 2.71762 6.98918 2.6155 7.27646C2.5 7.60141 2.5 7.97231 2.5 8.71409L2.5 12.5" stroke="white" stroke-width="1.5" stroke-linecap="round" stroke-linejoin="round"/>
<path d="M14.3 17.5C15.4201 17.5 15.9802 17.5 16.408 17.282C16.7843 17.0902 17.0903 16.7843 17.282 16.4079C17.5 15.9801 17.5 15.4201 17.5 14.3V9.86663C17.5 8.74652 17.5 8.18647 17.282 7.75865C17.0903 7.38232 16.7843 7.07636 16.408 6.88461C15.9802 6.66663 15.4201 6.66663 14.3 6.66663L5.7 6.66663C4.5799 6.66663 4.01984 6.66663 3.59202 6.88461C3.2157 7.07636 2.90973 7.38232 2.71799 7.75865C2.5 8.18647 2.5 8.74652 2.5 9.86662L2.5 14.3C2.5 15.4201 2.5 15.9801 2.71799 16.4079C2.90973 16.7843 3.21569 17.0902 3.59202 17.282C4.01984 17.5 4.57989 17.5 5.7 17.5L14.3 17.5Z" stroke="white" stroke-width="1.5" stroke-linecap="round" stroke-linejoin="round"/>
<path d="M13.75 12.0833H13.7583M14.1666 12.0833C14.1666 12.3134 13.9801 12.5 13.75 12.5C13.5199 12.5 13.3333 12.3134 13.3333 12.0833C13.3333 11.8532 13.5199 11.6666 13.75 11.6666C13.9801 11.6666 14.1666 11.8532 14.1666 12.0833Z" stroke="white" stroke-width="1.5" stroke-linecap="round" stroke-linejoin="round"/>
</svg>
