<svg width="120" height="26" viewBox="0 0 120 26" fill="none" xmlns="http://www.w3.org/2000/svg">
<path d="M86.5237 15.3976C89.3697 14.1502 90.9927 11.7942 90.9927 8.26151C90.9927 4.8471 89.1536 2.41149 86.3076 1.44635C84.8662 0.947855 82.6294 0.733887 80.2546 0.733887H72.1947C72.1338 0.733887 72.0753 0.757868 72.0322 0.800557C71.9891 0.843245 71.9648 0.901143 71.9648 0.961514V7.83584C71.9648 7.83584 71.9648 11.9012 76.0707 11.9012C76.0707 11.9012 71.9648 11.9012 71.9648 15.9666V25.0899C71.9648 25.1503 71.9891 25.2082 72.0322 25.2509C72.0753 25.2936 72.1338 25.3176 72.1947 25.3176H77.358C77.419 25.3176 77.4775 25.2936 77.5206 25.2509C77.5637 25.2082 77.5879 25.1503 77.5879 25.0899V16.4697H81.1489L86.2363 25.2037C86.2564 25.2381 86.2852 25.2668 86.3199 25.2867C86.3545 25.3067 86.3939 25.3173 86.434 25.3176H92.0985C92.1387 25.3173 92.1782 25.3066 92.2129 25.2866C92.2477 25.2665 92.2765 25.2377 92.2965 25.2032C92.3165 25.1686 92.327 25.1294 92.327 25.0896C92.3269 25.0498 92.3163 25.0106 92.2962 24.9761L86.5237 15.3976ZM83.7121 11.4323C82.9213 11.7897 81.696 11.8876 80.0339 11.8876H77.5879V5.51405H79.9305C81.2638 5.51405 82.5604 5.65745 83.4248 5.94426C84.6501 6.3722 85.2984 7.2645 85.2984 8.61888C85.2984 10.0461 84.8271 10.9019 83.7121 11.4323Z" fill="white"/>
<path d="M47.6641 0.961514V5.46853C47.6641 5.5289 47.6883 5.58679 47.7314 5.62948C47.7745 5.67217 47.833 5.69615 47.894 5.69615H58.9056C54.7998 5.69615 54.7998 9.76157 54.7998 9.76157V25.0899C54.7998 25.1503 54.824 25.2082 54.8672 25.2509C54.9103 25.2936 54.9687 25.3176 55.0297 25.3176H60.1585C60.2195 25.3176 60.278 25.2936 60.3211 25.2509C60.3642 25.2082 60.3884 25.1503 60.3884 25.0899V5.69388H67.515C67.5759 5.69388 67.6344 5.66989 67.6775 5.62721C67.7206 5.58452 67.7448 5.52662 67.7448 5.46625V0.961514C67.7448 0.901143 67.7206 0.843245 67.6775 0.800557C67.6344 0.757868 67.5759 0.733887 67.515 0.733887H47.894C47.833 0.733887 47.7745 0.757868 47.7314 0.800557C47.6883 0.843245 47.6641 0.901143 47.6641 0.961514Z" fill="white"/>
<path d="M38.301 10.6803L34.9975 9.67415C32.563 8.95485 32.0917 8.26969 32.0917 7.22716C32.0917 5.93196 32.8182 4.88943 35.7699 4.88943C38.278 4.88943 41.6919 5.8614 43.616 7.62095H43.7609V2.11921C43.7612 2.08594 43.7542 2.05302 43.7403 2.02273C43.7264 1.99245 43.7059 1.96555 43.6804 1.94393C42.2804 0.8058 38.8091 0 36.3516 0C29.7055 0 26.3652 3.30742 26.3652 7.58681C26.3652 11.1833 28.2526 13.6644 32.5722 14.8868L35.6964 15.7859C38.2022 16.4688 39.3286 17.0811 39.3286 18.4469C39.3286 20.318 37.8757 20.821 35.4044 20.821C33.032 20.821 29.6687 20.0403 27.1399 18.1715C27.0999 18.1431 27.0518 18.1282 27.0026 18.129C26.9534 18.1297 26.9058 18.146 26.8666 18.1756C26.8275 18.2052 26.799 18.2463 26.7853 18.2931C26.7716 18.3399 26.7734 18.3898 26.7905 18.4355L29.2802 24.7726C29.2924 24.8041 29.3116 24.8324 29.3362 24.8557C29.3609 24.8789 29.3904 24.8964 29.4227 24.9069C31.2593 25.5073 33.1807 25.8146 35.1148 25.8175C42.3792 25.8175 45.0666 22.0047 45.0666 18.0144C45.0574 14.4566 43.4597 12.2623 38.301 10.6803Z" fill="white"/>
<path d="M24.5275 25.0102L15.0492 0.881688C15.0322 0.839334 15.0027 0.80302 14.9646 0.777452C14.9265 0.751883 14.8815 0.738237 14.8354 0.738281H9.70663C9.66059 0.738237 9.6156 0.751883 9.57748 0.777452C9.53936 0.80302 9.50987 0.839334 9.49284 0.881688L0.0145423 25.0102C0.00159432 25.0445 -0.00280008 25.0814 0.00173174 25.1178C0.00626355 25.1541 0.0195882 25.1888 0.0405738 25.219C0.0615594 25.2492 0.0895859 25.2739 0.122274 25.291C0.154963 25.3082 0.191348 25.3172 0.228338 25.3175H5.6491C5.69502 25.3169 5.7397 25.3027 5.7774 25.2767C5.81509 25.2508 5.84407 25.2142 5.8606 25.1718L7.89511 19.8931V19.8795L12.1434 7.83342L14.8814 15.1494C9.67215 15.1494 8.00086 19.5881 7.89511 19.8795V19.8931H16.4722L18.5068 25.1718C18.5233 25.2142 18.5523 25.2508 18.59 25.2767C18.6277 25.3027 18.6723 25.3169 18.7183 25.3175H24.3183C24.3549 25.3165 24.3908 25.3069 24.4229 25.2895C24.455 25.272 24.4824 25.2472 24.5028 25.2172C24.5233 25.1871 24.5362 25.1526 24.5405 25.1166C24.5448 25.0806 24.5404 25.0441 24.5275 25.0102Z" fill="white"/>
<path d="M106.896 0.050293C104.305 0.050293 101.771 0.811248 99.6167 2.23693C97.4618 3.66262 95.7822 5.68899 94.7904 8.05982C93.7986 10.4307 93.5392 13.0395 94.0448 15.5563C94.5504 18.0732 95.7983 20.3851 97.6309 22.1996C99.4635 24.0142 101.798 25.2499 104.34 25.7505C106.882 26.2511 109.517 25.9942 111.911 25.0122C114.305 24.0301 116.352 22.3671 117.792 20.2335C119.231 18.0998 120 15.5912 120 13.0251C120 9.58392 118.619 6.28375 116.162 3.85051C113.705 1.41728 110.372 0.050293 106.896 0.050293ZM106.896 23.8351C106.896 20.9681 105.746 18.2185 103.699 16.1913C101.651 14.164 98.8746 13.0251 95.9792 13.0251C98.8746 13.0251 101.651 11.8862 103.699 9.85886C105.746 7.83159 106.896 5.08202 106.896 2.21503C106.896 5.08202 108.047 7.83159 110.094 9.85886C112.141 11.8862 114.918 13.0251 117.814 13.0251C114.918 13.0251 112.141 14.164 110.094 16.1913C108.047 18.2185 106.896 20.9681 106.896 23.8351Z" fill="white"/>
</svg>
