<svg width="161" height="50" viewBox="0 0 161 50" fill="none" xmlns="http://www.w3.org/2000/svg">
<path fill-rule="evenodd" clip-rule="evenodd" d="M11.0407 1.5583C11.6335 1.71534 12.2761 1.24461 12.476 0.506916C12.4965 0.431077 12.5116 0.355369 12.5215 0.280396L34.3985 6.07619C34.0768 8.28696 35.1169 10.3228 36.9103 10.7979C37.031 10.8299 37.1524 10.854 37.2741 10.8707L36.7251 12.8963H36.7249C36.1322 12.7393 35.4897 13.21 35.2898 13.9476C35.0899 14.6854 35.4082 15.4107 36.001 15.5677H36.0012L35.4581 17.5714L35.4577 17.5713C34.8649 17.4143 34.2223 17.885 34.0224 18.6227C33.8225 19.3604 34.1409 20.0857 34.7337 20.2427L34.7341 20.2429L34.1913 22.2463C33.5985 22.0894 32.9561 22.5601 32.7562 23.2977C32.5563 24.0353 32.8747 24.7606 33.4673 24.9177L32.9242 26.9214H32.9241C32.3314 26.7644 31.6888 27.2351 31.4889 27.9727C31.2889 28.7105 31.6074 29.4358 32.2001 29.5928H32.2002L31.6573 31.5964C31.0646 31.4394 30.422 31.9101 30.2221 32.6477C30.0222 33.3855 30.3406 34.1108 30.9333 34.2678L30.3903 36.2713C29.7977 36.1145 29.1553 36.5852 28.9553 37.3228C28.7554 38.0604 29.0738 38.7856 29.6663 38.9428L29.1234 40.9465C29.1233 40.9465 29.1233 40.9464 29.1233 40.9464C28.5304 40.7894 27.8879 41.2601 27.688 41.9978C27.4881 42.7355 27.8066 43.4609 28.3993 43.6178C28.3993 43.6179 28.3994 43.6179 28.3994 43.6179L27.8564 45.6214C26.063 45.1464 24.1328 46.3953 23.2934 48.4688L1.07333 42.5821C1.27325 41.8445 0.954815 41.1192 0.362084 40.9621L0.361938 40.962L0.904913 38.9585C1.49763 39.1155 2.14017 38.6448 2.34009 37.9071C2.54001 37.1695 2.22159 36.4442 1.6289 36.2871L2.1719 34.2834H2.17222C2.76495 34.4405 3.40751 33.9698 3.60744 33.2321C3.80736 32.4944 3.48892 31.769 2.89619 31.612L2.89588 31.6119L3.43884 29.6084H3.43898C4.03172 29.7655 4.67428 29.2948 4.8742 28.5571C5.07413 27.8194 4.75569 27.0941 4.16296 26.937H4.16283L4.7058 24.9334C5.29851 25.0905 5.94105 24.6198 6.14097 23.882C6.34089 23.1444 6.02247 22.419 5.42978 22.262L5.97275 20.2584C6.56541 20.4153 7.20785 19.9447 7.40774 19.207C7.60763 18.4695 7.28931 17.7442 6.69672 17.587L7.23974 15.5833H7.23986C7.83259 15.7404 8.47516 15.2697 8.67508 14.532C8.875 13.7943 8.55657 13.0689 7.96384 12.9119H7.96372L8.50672 10.9082L8.50721 10.9083C9.09994 11.0654 9.7425 10.5947 9.94242 9.85698C10.1423 9.11927 9.82391 8.39396 9.23118 8.23693L9.2307 8.23679L9.77363 6.2334C10.3663 6.39024 11.0087 5.91954 11.2086 5.18195C11.4085 4.44435 11.0902 3.71912 10.4976 3.56196L11.0406 1.55827L11.0407 1.5583Z" fill="url(#paint0_linear_0_115)"/>
<path d="M69.4851 33.8867V12.1072H61.592L57.0015 24.1235L52.3779 12.1072H44.4847V33.8867H50.1652V19.4867L55.7465 33.8867H58.2564L63.8047 19.4867V33.8867H69.4851ZM74.8668 16.7112C76.485 16.7112 77.8061 15.4051 77.8061 13.8051C77.8061 12.2051 76.485 10.9316 74.8668 10.9316C73.2485 10.9316 71.9605 12.2051 71.9605 13.8051C71.9605 15.4051 73.2485 16.7112 74.8668 16.7112ZM77.4097 33.8867V18.1153H72.3238V33.8867H77.4097ZM95.9908 33.8867V22.7194C95.9908 19.8133 94.3395 17.7235 90.7397 17.7235C88.0316 17.7235 86.1492 18.9316 85.1914 20.0418V18.1153H80.1055V33.8867H85.1914V23.699C85.7859 22.9806 86.7766 22.1643 88.2958 22.1643C89.8811 22.1643 90.9048 22.85 90.9048 24.7765V33.8867H95.9908ZM104.735 34.2786C106.617 34.2786 107.872 33.8214 108.5 33.2337L107.509 29.4459C107.344 29.6418 106.782 29.8378 106.221 29.8378C105.362 29.8378 104.834 29.152 104.834 28.2378V22.4582H108.07V18.1153H104.834V13.8051H99.7483V18.1153H97.1062V22.4582H99.7483V29.6418C99.7483 32.6786 101.499 34.2786 104.735 34.2786ZM112.145 16.7112C113.763 16.7112 115.084 15.4051 115.084 13.8051C115.084 12.2051 113.763 10.9316 112.145 10.9316C110.527 10.9316 109.239 12.2051 109.239 13.8051C109.239 15.4051 110.527 16.7112 112.145 16.7112ZM114.688 33.8867V18.1153H109.602V33.8867H114.688ZM125.045 34.2786C128.513 34.2786 130.627 32.7439 131.584 31.3725L128.282 28.3031C127.654 29.1847 126.631 29.8378 125.277 29.8378C123.163 29.8378 121.545 28.3684 121.545 25.9847C121.545 23.601 123.163 22.1643 125.277 22.1643C126.631 22.1643 127.654 22.752 128.282 23.6663L131.584 20.6296C130.627 19.2255 128.513 17.7235 125.045 17.7235C120.059 17.7235 116.36 21.0541 116.36 25.9847C116.36 30.9153 120.059 34.2786 125.045 34.2786ZM149.286 33.8867L143.11 25.299L148.989 18.1153H142.846L137.991 24.4174V12.1072H132.906V33.8867H137.991V30.099L139.511 28.3031L143.011 33.8867H149.286ZM155.986 34.2786C157.869 34.2786 159.124 33.8214 159.751 33.2337L158.76 29.4459C158.595 29.6418 158.034 29.8378 157.472 29.8378C156.614 29.8378 156.085 29.152 156.085 28.2378V22.4582H159.322V18.1153H156.085V13.8051H150.999V18.1153H148.357V22.4582H150.999V29.6418C150.999 32.6786 152.75 34.2786 155.986 34.2786Z" fill="white"/>
<defs>
<linearGradient id="paint0_linear_0_115" x1="19.1298" y1="20.4833" x2="25.9101" y2="62.402" gradientUnits="userSpaceOnUse">
<stop stop-color="white"/>
<stop offset="1" stop-color="#6D6D6D"/>
</linearGradient>
</defs>
</svg>
