<svg width="33" height="35" viewBox="0 0 33 35" fill="none" xmlns="http://www.w3.org/2000/svg">
<path d="M27.9359 6.67657C25.8326 5.68225 23.5771 4.94966 21.2188 4.53008C21.1759 4.52198 21.133 4.54222 21.1109 4.5827C20.8208 5.11426 20.4995 5.80772 20.2745 6.35278C17.738 5.96152 15.2146 5.96152 12.7302 6.35278C12.5052 5.79558 12.1722 5.11426 11.8808 4.5827C11.8587 4.54357 11.8158 4.52333 11.7728 4.53008C9.41588 4.94831 7.16039 5.6809 5.05579 6.67657C5.03758 6.68467 5.02197 6.69816 5.01156 6.7157C0.733414 13.3009 -0.438556 19.7242 0.136373 26.0679C0.138974 26.0989 0.155884 26.1286 0.179297 26.1475C3.00191 28.2832 5.73608 29.5797 8.41951 30.4391C8.46244 30.4526 8.50797 30.4364 8.53528 30.4C9.17004 29.5068 9.73587 28.5651 10.221 27.5749C10.2497 27.5169 10.2223 27.448 10.1638 27.4251C9.2663 27.0743 8.41171 26.6466 7.58964 26.161C7.5246 26.1218 7.5194 26.026 7.57923 25.9802C7.75223 25.8466 7.92523 25.7076 8.09043 25.5673C8.12034 25.5417 8.16197 25.5363 8.19709 25.5525C13.5978 28.0929 19.4446 28.0929 24.7816 25.5525C24.8167 25.535 24.8583 25.5403 24.8895 25.566C25.0547 25.7063 25.2277 25.8466 25.402 25.9802C25.4619 26.026 25.458 26.1218 25.3929 26.161C24.5709 26.6561 23.7163 27.0743 22.8175 27.4238C22.7589 27.4467 22.7329 27.5169 22.7615 27.5749C23.2571 28.5638 23.8229 29.5055 24.446 30.3986C24.472 30.4364 24.5188 30.4526 24.5618 30.4391C27.2582 29.5797 29.9924 28.2832 32.815 26.1475C32.8397 26.1286 32.8553 26.1002 32.8579 26.0692C33.546 18.7353 31.7054 12.3646 27.9788 6.71705C27.9697 6.69816 27.9541 6.68467 27.9359 6.67657ZM11.0275 22.2053C9.40158 22.2053 8.06181 20.6672 8.06181 18.7784C8.06181 16.8896 9.37556 15.3516 11.0275 15.3516C12.6925 15.3516 14.0192 16.9031 13.9932 18.7784C13.9932 20.6672 12.6795 22.2053 11.0275 22.2053ZM21.9928 22.2053C20.3669 22.2053 19.0271 20.6672 19.0271 18.7784C19.0271 16.8896 20.3408 15.3516 21.9928 15.3516C23.6577 15.3516 24.9845 16.9031 24.9585 18.7784C24.9585 20.6672 23.6577 22.2053 21.9928 22.2053Z" fill="white"/>
</svg>
