<svg width="35" height="35" viewBox="0 0 35 35" fill="none" xmlns="http://www.w3.org/2000/svg">
<path d="M21.707 4.375C18.3667 2.44393 14.6212 1.3203 10.7695 1.09375C6.39453 1.09375 5.30078 3.28125 5.30078 5.46875C5.30078 7.88521 6.28516 9.84375 8.58203 9.84375H21.707C23.6029 9.84375 24.9883 9.65854 24.9883 7.65625C25.0519 7.21054 25.0108 6.75615 24.8684 6.32904C24.726 5.90194 24.4861 5.51385 24.1678 5.19549C23.8494 4.87714 23.4613 4.63726 23.0342 4.49485C22.6071 4.35244 22.1527 4.31141 21.707 4.375V4.375Z" stroke="white" stroke-width="1.5" stroke-linecap="round" stroke-linejoin="round"/>
<path d="M21.707 4.375C18.3667 2.44393 14.6212 1.3203 10.7695 1.09375C6.39453 1.09375 5.30078 3.28125 5.30078 5.46875C5.30078 7.88521 6.28516 9.84375 8.58203 9.84375H21.707C23.6029 9.84375 24.9883 9.65854 24.9883 7.65625C25.0519 7.21054 25.0108 6.75615 24.8684 6.32904C24.726 5.90194 24.4861 5.51385 24.1678 5.19549C23.8494 4.87714 23.4613 4.63726 23.0342 4.49485C22.6071 4.35244 22.1527 4.31141 21.707 4.375V4.375Z" stroke="url(#paint0_radial_1051_8304)" stroke-width="1.5" stroke-linecap="round" stroke-linejoin="round"/>
<path d="M21.707 4.375C21.707 3.50476 22.0527 2.67016 22.6681 2.05481C23.2834 1.43945 24.118 1.09375 24.9883 1.09375" stroke="white" stroke-width="1.5" stroke-linecap="round" stroke-linejoin="round"/>
<path d="M21.707 4.375C21.707 3.50476 22.0527 2.67016 22.6681 2.05481C23.2834 1.43945 24.118 1.09375 24.9883 1.09375" stroke="url(#paint1_radial_1051_8304)" stroke-width="1.5" stroke-linecap="round" stroke-linejoin="round"/>
<path d="M9.67555 22.9658C7.42907 23.903 5.46042 25.4006 3.95764 27.3154C2.45487 29.2303 1.46817 31.4985 1.0918 33.9033" stroke="white" stroke-width="1.5" stroke-linecap="round" stroke-linejoin="round"/>
<path d="M9.67555 22.9658C7.42907 23.903 5.46042 25.4006 3.95764 27.3154C2.45487 29.2303 1.46817 31.4985 1.0918 33.9033" stroke="url(#paint2_radial_1051_8304)" stroke-width="1.5" stroke-linecap="round" stroke-linejoin="round"/>
<path d="M33.2833 19.5155C33.0593 19.8894 32.7629 20.2149 32.4117 20.473C32.0605 20.7311 31.6613 20.9166 31.2376 21.0187C30.8138 21.1209 30.374 21.1375 29.9437 21.0678C29.5134 20.998 29.1014 20.8433 28.7316 20.6125C28.3618 20.3817 28.0417 20.0796 27.79 19.7238C27.5383 19.3679 27.36 18.9655 27.2655 18.54C27.171 18.1144 27.1623 17.6744 27.2398 17.2454C27.3173 16.8165 27.4795 16.4073 27.7169 16.0417C28.8748 14.1867 31.6544 15.9251 33.3971 13.1411C33.3956 13.1382 34.2429 17.9784 33.2833 19.5155Z" stroke="white" stroke-width="1.5" stroke-linecap="round" stroke-linejoin="round"/>
<path d="M33.2833 19.5155C33.0593 19.8894 32.7629 20.2149 32.4117 20.473C32.0605 20.7311 31.6613 20.9166 31.2376 21.0187C30.8138 21.1209 30.374 21.1375 29.9437 21.0678C29.5134 20.998 29.1014 20.8433 28.7316 20.6125C28.3618 20.3817 28.0417 20.0796 27.79 19.7238C27.5383 19.3679 27.36 18.9655 27.2655 18.54C27.171 18.1144 27.1623 17.6744 27.2398 17.2454C27.3173 16.8165 27.4795 16.4073 27.7169 16.0417C28.8748 14.1867 31.6544 15.9251 33.3971 13.1411C33.3956 13.1382 34.2429 17.9784 33.2833 19.5155Z" stroke="url(#paint3_radial_1051_8304)" stroke-width="1.5" stroke-linecap="round" stroke-linejoin="round"/>
<path d="M28.7616 20.5625C28.41 20.3435 28.0166 20.2006 27.6065 20.1428C27.1964 20.085 26.7787 20.1137 26.3804 20.227C25.9821 20.3403 25.6118 20.5358 25.2936 20.8008C24.9753 21.0658 24.716 21.3944 24.5324 21.7656L19.7753 30.4209C19.5084 30.9589 19.4513 31.577 19.6151 32.1548C19.7789 32.7326 20.1519 33.2288 20.6614 33.5467C21.171 33.8646 21.7806 33.9815 22.3716 33.8747C22.9626 33.7678 23.4927 33.4448 23.8586 32.9686L29.5461 24.8967C29.7995 24.5679 29.9811 24.1897 30.0792 23.7865C30.1774 23.3832 30.1899 22.9638 30.1159 22.5554C30.042 22.147 29.8833 21.7587 29.65 21.4154C29.4167 21.0721 29.1141 20.7816 28.7616 20.5625V20.5625Z" stroke="white" stroke-width="1.5" stroke-linecap="round" stroke-linejoin="round"/>
<path d="M28.7616 20.5625C28.41 20.3435 28.0166 20.2006 27.6065 20.1428C27.1964 20.085 26.7787 20.1137 26.3804 20.227C25.9821 20.3403 25.6118 20.5358 25.2936 20.8008C24.9753 21.0658 24.716 21.3944 24.5324 21.7656L19.7753 30.4209C19.5084 30.9589 19.4513 31.577 19.6151 32.1548C19.7789 32.7326 20.1519 33.2288 20.6614 33.5467C21.171 33.8646 21.7806 33.9815 22.3716 33.8747C22.9626 33.7678 23.4927 33.4448 23.8586 32.9686L29.5461 24.8967C29.7995 24.5679 29.9811 24.1897 30.0792 23.7865C30.1774 23.3832 30.1899 22.9638 30.1159 22.5554C30.042 22.147 29.8833 21.7587 29.65 21.4154C29.4167 21.0721 29.1141 20.7816 28.7616 20.5625V20.5625Z" stroke="url(#paint4_radial_1051_8304)" stroke-width="1.5" stroke-linecap="round" stroke-linejoin="round"/>
<path d="M7.58219 9.70239C7.4044 10.7929 7.46475 11.909 7.75911 12.974C8.05346 14.039 8.57485 15.0276 9.28744 15.8721C10 16.7165 10.887 17.3967 11.8873 17.8659C12.8876 18.3351 13.9777 18.5823 15.0826 18.5904C16.1875 18.5985 17.281 18.3673 18.2881 17.9128C19.2953 17.4583 20.192 16.7912 20.9169 15.9573C21.6418 15.1234 22.1776 14.1425 22.4876 13.0819C22.7975 12.0213 22.8742 10.9062 22.7124 9.81323" stroke="white" stroke-width="1.5" stroke-linecap="round" stroke-linejoin="round"/>
<path d="M7.58219 9.70239C7.4044 10.7929 7.46475 11.909 7.75911 12.974C8.05346 14.039 8.57485 15.0276 9.28744 15.8721C10 16.7165 10.887 17.3967 11.8873 17.8659C12.8876 18.3351 13.9777 18.5823 15.0826 18.5904C16.1875 18.5985 17.281 18.3673 18.2881 17.9128C19.2953 17.4583 20.192 16.7912 20.9169 15.9573C21.6418 15.1234 22.1776 14.1425 22.4876 13.0819C22.7975 12.0213 22.8742 10.9062 22.7124 9.81323" stroke="url(#paint5_radial_1051_8304)" stroke-width="1.5" stroke-linecap="round" stroke-linejoin="round"/>
<defs>
<radialGradient id="paint0_radial_1051_8304" cx="0" cy="0" r="1" gradientUnits="userSpaceOnUse" gradientTransform="translate(6.20775 -1.35625) rotate(52.1135) scale(26.5307 77.199)">
<stop offset="0.0104167" stop-color="#6D6D6D"/>
<stop offset="0.422115" stop-color="#FF00E5"/>
<stop offset="0.933071" stop-color="#D3FEB8" stop-opacity="0.92"/>
</radialGradient>
<radialGradient id="paint1_radial_1051_8304" cx="0" cy="0" r="1" gradientUnits="userSpaceOnUse" gradientTransform="translate(21.858 0.174999) rotate(70.9496) scale(8.30699 15.387)">
<stop offset="0.0104167" stop-color="#6D6D6D"/>
<stop offset="0.422115" stop-color="#FF00E5"/>
<stop offset="0.933071" stop-color="#D3FEB8" stop-opacity="0.92"/>
</radialGradient>
<radialGradient id="paint2_radial_1051_8304" cx="0" cy="0" r="1" gradientUnits="userSpaceOnUse" gradientTransform="translate(1.48665 19.9033) rotate(74.837) scale(27.1175 41.1022)">
<stop offset="0.0104167" stop-color="#6D6D6D"/>
<stop offset="0.422115" stop-color="#FF00E5"/>
<stop offset="0.933071" stop-color="#D3FEB8" stop-opacity="0.92"/>
</radialGradient>
<radialGradient id="paint3_radial_1051_8304" cx="0" cy="0" r="1" gradientUnits="userSpaceOnUse" gradientTransform="translate(27.489 10.9098) rotate(74.1465) scale(19.8237 31.2761)">
<stop offset="0.0104167" stop-color="#6D6D6D"/>
<stop offset="0.422115" stop-color="#FF00E5"/>
<stop offset="0.933071" stop-color="#D3FEB8" stop-opacity="0.92"/>
</radialGradient>
<radialGradient id="paint4_radial_1051_8304" cx="0" cy="0" r="1" gradientUnits="userSpaceOnUse" gradientTransform="translate(20.0129 16.2499) rotate(75.0908) scale(34.1726 51.0089)">
<stop offset="0.0104167" stop-color="#6D6D6D"/>
<stop offset="0.422115" stop-color="#FF00E5"/>
<stop offset="0.933071" stop-color="#D3FEB8" stop-opacity="0.92"/>
</radialGradient>
<radialGradient id="paint5_radial_1051_8304" cx="0" cy="0" r="1" gradientUnits="userSpaceOnUse" gradientTransform="translate(8.1868 7.21369) rotate(59.2515) scale(24.7486 65.2873)">
<stop offset="0.0104167" stop-color="#6D6D6D"/>
<stop offset="0.422115" stop-color="#FF00E5"/>
<stop offset="0.933071" stop-color="#D3FEB8" stop-opacity="0.92"/>
</radialGradient>
</defs>
</svg>
