<svg width="35" height="35" viewBox="0 0 35 35" fill="none" xmlns="http://www.w3.org/2000/svg">
<g clip-path="url(#clip0_882_11316)">
<path d="M24.6143 21.9137C24.055 21.9137 23.5187 21.6916 23.1232 21.2961C22.7278 20.9007 22.5056 20.3643 22.5056 19.8051V16.6421C22.5056 16.0829 22.7278 15.5465 23.1232 15.1511C23.5187 14.7556 24.055 14.5335 24.6143 14.5335C25.4484 14.5335 26.2637 14.2861 26.9573 13.8227C27.6508 13.3593 28.1913 12.7007 28.5105 11.9301C28.8297 11.1594 28.9132 10.3115 28.7505 9.49342C28.5878 8.67534 28.1861 7.92389 27.5963 7.3341C27.0065 6.7443 26.2551 6.34264 25.437 6.17991C24.6189 6.01719 23.771 6.10071 23.0004 6.4199C22.2298 6.7391 21.5711 7.27964 21.1077 7.97317C20.6443 8.6667 20.397 9.48207 20.397 10.3162C20.397 10.8754 20.1748 11.4118 19.7794 11.8072C19.3839 12.2027 18.8476 12.4248 18.2883 12.4248C17.7291 12.4248 17.1927 12.2027 16.7973 11.8072C16.4018 11.4118 16.1797 10.8754 16.1797 10.3162C16.1798 8.73865 16.6224 7.19279 17.457 5.85417C18.2917 4.51555 19.485 3.43783 20.9015 2.74344C22.318 2.04904 23.9008 1.76579 25.4702 1.92587C27.0395 2.08594 28.5326 2.68293 29.7797 3.64901C31.0268 4.6151 31.9779 5.91156 32.5251 7.39113C33.0723 8.8707 33.1937 10.4741 32.8753 12.0191C32.5569 13.5642 31.8116 14.989 30.7241 16.1317C29.6366 17.2744 28.2503 18.0893 26.7229 18.4837V19.8051C26.7229 20.082 26.6684 20.3562 26.5624 20.612C26.4564 20.8678 26.3011 21.1003 26.1053 21.2961C25.9095 21.4919 25.677 21.6472 25.4212 21.7532C25.1654 21.8592 24.8912 21.9137 24.6143 21.9137Z" stroke="white" stroke-width="1.68692" stroke-linecap="round" stroke-linejoin="round"/>
<path d="M24.6143 21.9137C24.055 21.9137 23.5187 21.6916 23.1232 21.2961C22.7278 20.9007 22.5056 20.3643 22.5056 19.8051V16.6421C22.5056 16.0829 22.7278 15.5465 23.1232 15.1511C23.5187 14.7556 24.055 14.5335 24.6143 14.5335C25.4484 14.5335 26.2637 14.2861 26.9573 13.8227C27.6508 13.3593 28.1913 12.7007 28.5105 11.9301C28.8297 11.1594 28.9132 10.3115 28.7505 9.49342C28.5878 8.67534 28.1861 7.92389 27.5963 7.3341C27.0065 6.7443 26.2551 6.34264 25.437 6.17991C24.6189 6.01719 23.771 6.10071 23.0004 6.4199C22.2298 6.7391 21.5711 7.27964 21.1077 7.97317C20.6443 8.6667 20.397 9.48207 20.397 10.3162C20.397 10.8754 20.1748 11.4118 19.7794 11.8072C19.3839 12.2027 18.8476 12.4248 18.2883 12.4248C17.7291 12.4248 17.1927 12.2027 16.7973 11.8072C16.4018 11.4118 16.1797 10.8754 16.1797 10.3162C16.1798 8.73865 16.6224 7.19279 17.457 5.85417C18.2917 4.51555 19.485 3.43783 20.9015 2.74344C22.318 2.04904 23.9008 1.76579 25.4702 1.92587C27.0395 2.08594 28.5326 2.68293 29.7797 3.64901C31.0268 4.6151 31.9779 5.91156 32.5251 7.39113C33.0723 8.8707 33.1937 10.4741 32.8753 12.0191C32.5569 13.5642 31.8116 14.989 30.7241 16.1317C29.6366 17.2744 28.2503 18.0893 26.7229 18.4837V19.8051C26.7229 20.082 26.6684 20.3562 26.5624 20.612C26.4564 20.8678 26.3011 21.1003 26.1053 21.2961C25.9095 21.4919 25.677 21.6472 25.4212 21.7532C25.1654 21.8592 24.8912 21.9137 24.6143 21.9137Z" stroke="url(#paint0_radial_882_11316)" stroke-width="1.68692" stroke-linecap="round" stroke-linejoin="round"/>
<path d="M21.4492 28.2396C21.4492 29.0785 21.7825 29.883 22.3756 30.4762C22.9688 31.0694 23.7733 31.4026 24.6122 31.4026C25.4511 31.4026 26.2556 31.0694 26.8487 30.4762C27.4419 29.883 27.7752 29.0785 27.7752 28.2396C27.7752 27.4008 27.4419 26.5962 26.8487 26.0031C26.2556 25.4099 25.4511 25.0767 24.6122 25.0767C23.7733 25.0767 22.9688 25.4099 22.3756 26.0031C21.7825 26.5962 21.4492 27.4008 21.4492 28.2396Z" stroke="white" stroke-width="1.68692" stroke-linecap="round" stroke-linejoin="round"/>
<path d="M21.4492 28.2396C21.4492 29.0785 21.7825 29.883 22.3756 30.4762C22.9688 31.0694 23.7733 31.4026 24.6122 31.4026C25.4511 31.4026 26.2556 31.0694 26.8487 30.4762C27.4419 29.883 27.7752 29.0785 27.7752 28.2396C27.7752 27.4008 27.4419 26.5962 26.8487 26.0031C26.2556 25.4099 25.4511 25.0767 24.6122 25.0767C23.7733 25.0767 22.9688 25.4099 22.3756 26.0031C21.7825 26.5962 21.4492 27.4008 21.4492 28.2396Z" stroke="url(#paint1_radial_882_11316)" stroke-width="1.68692" stroke-linecap="round" stroke-linejoin="round"/>
<path d="M9.85255 13.4795C10.4118 13.4795 10.9481 13.7017 11.3436 14.0971C11.739 14.4925 11.9612 15.0289 11.9612 15.5881V18.7511C11.9612 19.3104 11.739 19.8467 11.3436 20.2421C10.9481 20.6376 10.4118 20.8597 9.85255 20.8597C9.01845 20.8597 8.20308 21.1071 7.50955 21.5705C6.81602 22.0339 6.27548 22.6925 5.95628 23.4632C5.63709 24.2338 5.55357 25.0817 5.71629 25.8998C5.87902 26.7179 6.28068 27.4693 6.87048 28.0591C7.46028 28.6489 8.21172 29.0506 9.0298 29.2133C9.84787 29.376 10.6958 29.2925 11.4664 28.9733C12.237 28.6541 12.8957 28.1136 13.3591 27.42C13.8225 26.7265 14.0698 25.9111 14.0698 25.077C14.0698 24.5178 14.292 23.9815 14.6874 23.586C15.0829 23.1906 15.6192 22.9684 16.1785 22.9684C16.7377 22.9684 17.2741 23.1906 17.6695 23.586C18.065 23.9815 18.2871 24.5178 18.2871 25.077C18.2873 26.6546 17.8449 28.2006 17.0104 29.5394C16.1759 30.8782 14.9827 31.9561 13.5663 32.6507C12.1498 33.3453 10.567 33.6288 8.99753 33.4688C7.42808 33.3089 5.93493 32.712 4.68771 31.746C3.44049 30.78 2.48918 29.4836 1.94186 28.004C1.39454 26.5244 1.27314 24.921 1.59145 23.3758C1.90977 21.8307 2.65504 20.4058 3.7426 19.263C4.83016 18.1202 6.21642 17.3054 7.74391 16.911V15.5881C7.74391 15.0289 7.96607 14.4925 8.36151 14.0971C8.75696 13.7017 9.2933 13.4795 9.85255 13.4795V13.4795Z" stroke="white" stroke-width="1.68692" stroke-linecap="round" stroke-linejoin="round"/>
<path d="M9.85255 13.4795C10.4118 13.4795 10.9481 13.7017 11.3436 14.0971C11.739 14.4925 11.9612 15.0289 11.9612 15.5881V18.7511C11.9612 19.3104 11.739 19.8467 11.3436 20.2421C10.9481 20.6376 10.4118 20.8597 9.85255 20.8597C9.01845 20.8597 8.20308 21.1071 7.50955 21.5705C6.81602 22.0339 6.27548 22.6925 5.95628 23.4632C5.63709 24.2338 5.55357 25.0817 5.71629 25.8998C5.87902 26.7179 6.28068 27.4693 6.87048 28.0591C7.46028 28.6489 8.21172 29.0506 9.0298 29.2133C9.84787 29.376 10.6958 29.2925 11.4664 28.9733C12.237 28.6541 12.8957 28.1136 13.3591 27.42C13.8225 26.7265 14.0698 25.9111 14.0698 25.077C14.0698 24.5178 14.292 23.9815 14.6874 23.586C15.0829 23.1906 15.6192 22.9684 16.1785 22.9684C16.7377 22.9684 17.2741 23.1906 17.6695 23.586C18.065 23.9815 18.2871 24.5178 18.2871 25.077C18.2873 26.6546 17.8449 28.2006 17.0104 29.5394C16.1759 30.8782 14.9827 31.9561 13.5663 32.6507C12.1498 33.3453 10.567 33.6288 8.99753 33.4688C7.42808 33.3089 5.93493 32.712 4.68771 31.746C3.44049 30.78 2.48918 29.4836 1.94186 28.004C1.39454 26.5244 1.27314 24.921 1.59145 23.3758C1.90977 21.8307 2.65504 20.4058 3.7426 19.263C4.83016 18.1202 6.21642 17.3054 7.74391 16.911V15.5881C7.74391 15.0289 7.96607 14.4925 8.36151 14.0971C8.75696 13.7017 9.2933 13.4795 9.85255 13.4795V13.4795Z" stroke="url(#paint2_radial_882_11316)" stroke-width="1.68692" stroke-linecap="round" stroke-linejoin="round"/>
<path d="M6.69141 7.1532C6.69141 7.99207 7.02465 8.79659 7.61782 9.38976C8.21099 9.98293 9.0155 10.3162 9.85437 10.3162C10.6932 10.3162 11.4978 9.98293 12.0909 9.38976C12.6841 8.79659 13.0173 7.99207 13.0173 7.1532C13.0173 6.31433 12.6841 5.50982 12.0909 4.91665C11.4978 4.32347 10.6932 3.99023 9.85437 3.99023C9.0155 3.99023 8.21099 4.32347 7.61782 4.91665C7.02465 5.50982 6.69141 6.31433 6.69141 7.1532Z" stroke="white" stroke-width="1.68692" stroke-linecap="round" stroke-linejoin="round"/>
<path d="M6.69141 7.1532C6.69141 7.99207 7.02465 8.79659 7.61782 9.38976C8.21099 9.98293 9.0155 10.3162 9.85437 10.3162C10.6932 10.3162 11.4978 9.98293 12.0909 9.38976C12.6841 8.79659 13.0173 7.99207 13.0173 7.1532C13.0173 6.31433 12.6841 5.50982 12.0909 4.91665C11.4978 4.32347 10.6932 3.99023 9.85437 3.99023C9.0155 3.99023 8.21099 4.32347 7.61782 4.91665C7.02465 5.50982 6.69141 6.31433 6.69141 7.1532Z" stroke="url(#paint3_radial_882_11316)" stroke-width="1.68692" stroke-linecap="round" stroke-linejoin="round"/>
</g>
<defs>
<radialGradient id="paint0_radial_882_11316" cx="0" cy="0" r="1" gradientUnits="userSpaceOnUse" gradientTransform="translate(16.9557 -3.72647) rotate(73.7856) scale(49.9208 80.3605)">
<stop offset="0.0104167" stop-color="#6D6D6D"/>
<stop offset="0.422115" stop-color="#FF00E5"/>
<stop offset="0.933071" stop-color="#D3FEB8" stop-opacity="0.92"/>
</radialGradient>
<radialGradient id="paint1_radial_882_11316" cx="0" cy="0" r="1" gradientUnits="userSpaceOnUse" gradientTransform="translate(21.7402 23.3054) rotate(70.9496) scale(16.0151 29.6647)">
<stop offset="0.0104167" stop-color="#6D6D6D"/>
<stop offset="0.422115" stop-color="#FF00E5"/>
<stop offset="0.933071" stop-color="#D3FEB8" stop-opacity="0.92"/>
</radialGradient>
<radialGradient id="paint2_radial_882_11316" cx="0" cy="0" r="1" gradientUnits="userSpaceOnUse" gradientTransform="translate(2.19395 7.8703) rotate(73.7866) scale(49.924 80.361)">
<stop offset="0.0104167" stop-color="#6D6D6D"/>
<stop offset="0.422115" stop-color="#FF00E5"/>
<stop offset="0.933071" stop-color="#D3FEB8" stop-opacity="0.92"/>
</radialGradient>
<radialGradient id="paint3_radial_882_11316" cx="0" cy="0" r="1" gradientUnits="userSpaceOnUse" gradientTransform="translate(6.9824 2.21897) rotate(70.9496) scale(16.0151 29.6647)">
<stop offset="0.0104167" stop-color="#6D6D6D"/>
<stop offset="0.422115" stop-color="#FF00E5"/>
<stop offset="0.933071" stop-color="#D3FEB8" stop-opacity="0.92"/>
</radialGradient>
<clipPath id="clip0_882_11316">
<rect width="33.7383" height="33.7383" fill="white" transform="translate(0.363281 0.827148)"/>
</clipPath>
</defs>
</svg>
