<svg width="34" height="35" viewBox="0 0 34 35" fill="none" xmlns="http://www.w3.org/2000/svg">
<g clip-path="url(#clip0_882_11337)">
<path d="M32.6738 29.2794C32.1146 29.2794 31.5783 29.0572 31.1828 28.6618C30.7874 28.2664 30.5652 27.73 30.5652 27.1708C30.5652 26.6115 30.7874 26.0752 31.1828 25.6797C31.5783 25.2843 32.1146 25.0621 32.6738 25.0621V21.9132C32.6702 21.6347 32.558 21.3687 32.361 21.1717C32.1641 20.9748 31.898 20.8625 31.6195 20.8589H16.859C16.5794 20.8589 16.3112 20.97 16.1135 21.1677C15.9158 21.3654 15.8047 21.6336 15.8047 21.9132V25.0762C16.3639 25.0762 16.9003 25.2983 17.2957 25.6938C17.6912 26.0892 17.9133 26.6256 17.9133 27.1848C17.9133 27.7441 17.6912 28.2804 17.2957 28.6759C16.9003 29.0713 16.3639 29.2935 15.8047 29.2935V32.4564C15.8047 32.7361 15.9158 33.0042 16.1135 33.202C16.3112 33.3997 16.5794 33.5108 16.859 33.5108H31.6195C31.898 33.5071 32.1641 33.3949 32.361 33.1979C32.558 33.001 32.6702 32.7349 32.6738 32.4564V29.2794Z" stroke="white" stroke-width="1.68692" stroke-linecap="round" stroke-linejoin="round"/>
<path d="M32.6738 29.2794C32.1146 29.2794 31.5783 29.0572 31.1828 28.6618C30.7874 28.2664 30.5652 27.73 30.5652 27.1708C30.5652 26.6115 30.7874 26.0752 31.1828 25.6797C31.5783 25.2843 32.1146 25.0621 32.6738 25.0621V21.9132C32.6702 21.6347 32.558 21.3687 32.361 21.1717C32.1641 20.9748 31.898 20.8625 31.6195 20.8589H16.859C16.5794 20.8589 16.3112 20.97 16.1135 21.1677C15.9158 21.3654 15.8047 21.6336 15.8047 21.9132V25.0762C16.3639 25.0762 16.9003 25.2983 17.2957 25.6938C17.6912 26.0892 17.9133 26.6256 17.9133 27.1848C17.9133 27.7441 17.6912 28.2804 17.2957 28.6759C16.9003 29.0713 16.3639 29.2935 15.8047 29.2935V32.4564C15.8047 32.7361 15.9158 33.0042 16.1135 33.202C16.3112 33.3997 16.5794 33.5108 16.859 33.5108H31.6195C31.898 33.5071 32.1641 33.3949 32.361 33.1979C32.558 33.001 32.6702 32.7349 32.6738 32.4564V29.2794Z" stroke="url(#paint0_radial_882_11337)" stroke-width="1.68692" stroke-linecap="round" stroke-linejoin="round"/>
<path d="M25.2935 16.6272V8.19263C25.2935 7.63338 25.0713 7.09704 24.6759 6.70159C24.2804 6.30614 23.7441 6.08398 23.1848 6.08398C22.6256 6.08398 22.0892 6.30614 21.6938 6.70159C21.2983 7.09704 21.0762 7.63338 21.0762 8.19263V13.4783" stroke="white" stroke-width="1.68692" stroke-linecap="round" stroke-linejoin="round"/>
<path d="M25.2935 16.6272V8.19263C25.2935 7.63338 25.0713 7.09704 24.6759 6.70159C24.2804 6.30614 23.7441 6.08398 23.1848 6.08398C22.6256 6.08398 22.0892 6.30614 21.6938 6.70159C21.2983 7.09704 21.0762 7.63338 21.0762 8.19263V13.4783" stroke="url(#paint1_radial_882_11337)" stroke-width="1.68692" stroke-linecap="round" stroke-linejoin="round"/>
<path d="M12.6411 13.4783V3.97534C12.6411 3.4161 12.4189 2.87975 12.0235 2.48431C11.628 2.08886 11.0917 1.8667 10.5324 1.8667V1.8667C9.97319 1.8667 9.43685 2.08886 9.0414 2.48431C8.64595 2.87975 8.42379 3.4161 8.42379 3.97534V19.7902L4.99373 16.9787C4.76106 16.7879 4.49073 16.6484 4.20043 16.5694C3.91014 16.4903 3.60642 16.4735 3.30916 16.5199C3.0119 16.5664 2.7278 16.6751 2.47546 16.8389C2.22311 17.0028 2.00821 17.218 1.84482 17.4707V17.4707C1.60488 17.823 1.47656 18.2393 1.47656 18.6656C1.47656 19.0918 1.60488 19.5082 1.84482 19.8605C7.46787 28.2248 7.08832 27.7468 7.46787 28.1545C8.55214 29.5019 10.0244 30.4834 11.6852 30.966" stroke="white" stroke-width="1.68692" stroke-linecap="round" stroke-linejoin="round"/>
<path d="M12.6411 13.4783V3.97534C12.6411 3.4161 12.4189 2.87975 12.0235 2.48431C11.628 2.08886 11.0917 1.8667 10.5324 1.8667V1.8667C9.97319 1.8667 9.43685 2.08886 9.0414 2.48431C8.64595 2.87975 8.42379 3.4161 8.42379 3.97534V19.7902L4.99373 16.9787C4.76106 16.7879 4.49073 16.6484 4.20043 16.5694C3.91014 16.4903 3.60642 16.4735 3.30916 16.5199C3.0119 16.5664 2.7278 16.6751 2.47546 16.8389C2.22311 17.0028 2.00821 17.218 1.84482 17.4707V17.4707C1.60488 17.823 1.47656 18.2393 1.47656 18.6656C1.47656 19.0918 1.60488 19.5082 1.84482 19.8605C7.46787 28.2248 7.08832 27.7468 7.46787 28.1545C8.55214 29.5019 10.0244 30.4834 11.6852 30.966" stroke="url(#paint2_radial_882_11337)" stroke-width="1.68692" stroke-linecap="round" stroke-linejoin="round"/>
<path d="M16.8579 16.6277V13.4788C16.8579 12.9195 16.6358 12.3832 16.2403 11.9877C15.8449 11.5923 15.3085 11.3701 14.7493 11.3701V11.3701C14.19 11.3701 13.6537 11.5923 13.2582 11.9877C12.8628 12.3832 12.6406 12.9195 12.6406 13.4788V16.6417" stroke="white" stroke-width="1.68692" stroke-linecap="round" stroke-linejoin="round"/>
<path d="M16.8579 16.6277V13.4788C16.8579 12.9195 16.6358 12.3832 16.2403 11.9877C15.8449 11.5923 15.3085 11.3701 14.7493 11.3701V11.3701C14.19 11.3701 13.6537 11.5923 13.2582 11.9877C12.8628 12.3832 12.6406 12.9195 12.6406 13.4788V16.6417" stroke="url(#paint3_radial_882_11337)" stroke-width="1.68692" stroke-linecap="round" stroke-linejoin="round"/>
<path d="M21.0767 16.6277V13.4788C21.0767 12.9195 20.8545 12.3832 20.4591 11.9877C20.0636 11.5923 19.5273 11.3701 18.968 11.3701V11.3701C18.4088 11.3701 17.8724 11.5923 17.477 11.9877C17.0815 12.3832 16.8594 12.9195 16.8594 13.4788V16.6417" stroke="white" stroke-width="1.68692" stroke-linecap="round" stroke-linejoin="round"/>
<path d="M21.0767 16.6277V13.4788C21.0767 12.9195 20.8545 12.3832 20.4591 11.9877C20.0636 11.5923 19.5273 11.3701 18.968 11.3701V11.3701C18.4088 11.3701 17.8724 11.5923 17.477 11.9877C17.0815 12.3832 16.8594 12.9195 16.8594 13.4788V16.6417" stroke="url(#paint4_radial_882_11337)" stroke-width="1.68692" stroke-linecap="round" stroke-linejoin="round"/>
</g>
<defs>
<radialGradient id="paint0_radial_882_11337" cx="0" cy="0" r="1" gradientUnits="userSpaceOnUse" gradientTransform="translate(16.5807 17.3164) rotate(65.2779) scale(33.3308 76.019)">
<stop offset="0.0104167" stop-color="#6D6D6D"/>
<stop offset="0.422115" stop-color="#FF00E5"/>
<stop offset="0.933071" stop-color="#D3FEB8" stop-opacity="0.92"/>
</radialGradient>
<radialGradient id="paint1_radial_882_11337" cx="0" cy="0" r="1" gradientUnits="userSpaceOnUse" gradientTransform="translate(21.2702 3.13188) rotate(82.1358) scale(25.4695 20.7256)">
<stop offset="0.0104167" stop-color="#6D6D6D"/>
<stop offset="0.422115" stop-color="#FF00E5"/>
<stop offset="0.933071" stop-color="#D3FEB8" stop-opacity="0.92"/>
</radialGradient>
<radialGradient id="paint2_radial_882_11337" cx="0" cy="0" r="1" gradientUnits="userSpaceOnUse" gradientTransform="translate(1.99013 -6.28112) rotate(82.4531) scale(70.2431 54.9084)">
<stop offset="0.0104167" stop-color="#6D6D6D"/>
<stop offset="0.422115" stop-color="#FF00E5"/>
<stop offset="0.933071" stop-color="#D3FEB8" stop-opacity="0.92"/>
</radialGradient>
<radialGradient id="paint3_radial_882_11337" cx="0" cy="0" r="1" gradientUnits="userSpaceOnUse" gradientTransform="translate(12.8346 9.89406) rotate(74.5572) scale(13.0875 20.167)">
<stop offset="0.0104167" stop-color="#6D6D6D"/>
<stop offset="0.422115" stop-color="#FF00E5"/>
<stop offset="0.933071" stop-color="#D3FEB8" stop-opacity="0.92"/>
</radialGradient>
<radialGradient id="paint4_radial_882_11337" cx="0" cy="0" r="1" gradientUnits="userSpaceOnUse" gradientTransform="translate(17.0534 9.89406) rotate(74.5572) scale(13.0875 20.167)">
<stop offset="0.0104167" stop-color="#6D6D6D"/>
<stop offset="0.422115" stop-color="#FF00E5"/>
<stop offset="0.933071" stop-color="#D3FEB8" stop-opacity="0.92"/>
</radialGradient>
<clipPath id="clip0_882_11337">
<rect width="33.7383" height="33.7383" fill="white" transform="translate(0.0722656 0.827148)"/>
</clipPath>
</defs>
</svg>
