<svg width="35" height="35" viewBox="0 0 35 35" fill="none" xmlns="http://www.w3.org/2000/svg">
<g clip-path="url(#clip0_882_11326)">
<path d="M10.9585 13.4994C11.1311 13.6896 11.3416 13.8416 11.5765 13.9456C11.8113 14.0495 12.0653 14.1033 12.3221 14.1033C12.5789 14.1033 12.8329 14.0495 13.0678 13.9456C13.3026 13.8416 13.5131 13.6896 13.6857 13.4994L14.5713 12.5154C14.8243 12.23 15.1602 12.0308 15.532 11.9458C15.9038 11.8609 16.2928 11.8943 16.6446 12.0416C16.9964 12.1888 17.2934 12.4424 17.4938 12.7669C17.6943 13.0913 17.7882 13.4704 17.7624 13.8509V15.1582C17.7482 15.4149 17.7883 15.6716 17.88 15.9118C17.9718 16.1519 18.1131 16.3699 18.2949 16.5517C18.4766 16.7334 18.6947 16.8748 18.9348 16.9665C19.1749 17.0583 19.4317 17.0984 19.6883 17.0841L21.0097 17.0138C21.3887 16.9961 21.7639 17.0959 22.084 17.2995C22.4042 17.5032 22.6536 17.8007 22.7982 18.1515C22.9428 18.5022 22.9755 18.8891 22.8919 19.2592C22.8084 19.6292 22.6125 19.9644 22.3312 20.219L21.3471 21.0906C21.1529 21.269 20.9987 21.4865 20.8945 21.7288C20.7903 21.971 20.7386 22.2326 20.7426 22.4963C20.7367 22.7603 20.7877 23.0224 20.892 23.265C20.9963 23.5075 21.1515 23.7248 21.3471 23.9021L22.3312 24.7877C22.6117 25.0425 22.8069 25.3778 22.8899 25.7476C22.9729 26.1174 22.9398 26.5039 22.7951 26.8542C22.6503 27.2032 22.4008 27.4988 22.0811 27.7002C21.7614 27.9016 21.3871 27.9989 21.0097 27.9788H19.6883C19.4317 27.9646 19.1749 28.0046 18.9348 28.0964C18.6947 28.1881 18.4766 28.3295 18.2949 28.5112C18.1131 28.693 17.9718 28.9111 17.88 29.1512C17.7883 29.3913 17.7482 29.648 17.7624 29.9047V31.212C17.7849 31.5913 17.6887 31.9682 17.487 32.2903C17.2854 32.6123 16.9884 32.8635 16.6373 33.0088C16.2863 33.1542 15.8986 33.1865 15.5284 33.1013C15.1581 33.0161 14.8236 32.8176 14.5713 32.5335L13.6857 31.5635C13.5131 31.3733 13.3026 31.2214 13.0678 31.1174C12.8329 31.0134 12.5789 30.9597 12.3221 30.9597C12.0653 30.9597 11.8113 31.0134 11.5765 31.1174C11.3416 31.2214 11.1311 31.3733 10.9585 31.5635L10.0729 32.5335C9.82068 32.8176 9.48616 33.0161 9.11588 33.1013C8.74559 33.1865 8.35796 33.1542 8.00691 33.0088C7.65586 32.8635 7.35885 32.6123 7.1572 32.2903C6.95555 31.9682 6.85929 31.5913 6.88182 31.212V29.9047C6.89605 29.648 6.85598 29.3913 6.76423 29.1512C6.67249 28.9111 6.53112 28.693 6.34936 28.5112C6.1676 28.3295 5.94955 28.1881 5.70944 28.0964C5.46933 28.0046 5.21257 27.9646 4.95592 27.9788H3.6345C3.25717 27.9989 2.88287 27.9016 2.56314 27.7002C2.24342 27.4988 1.99398 27.2032 1.84918 26.8542C1.70444 26.5039 1.67132 26.1174 1.75434 25.7476C1.83737 25.3778 2.03249 25.0425 2.31308 24.7877L3.29712 23.9021C3.49276 23.7248 3.64799 23.5075 3.75228 23.265C3.85658 23.0224 3.9075 22.7603 3.9016 22.4963C3.90569 22.2326 3.85394 21.971 3.74976 21.7288C3.64558 21.4865 3.49132 21.269 3.29712 21.0906L2.31308 20.219C2.03174 19.9644 1.83589 19.6292 1.75229 19.2592C1.6687 18.8891 1.70144 18.5022 1.84605 18.1515C1.99066 17.8007 2.24008 17.5032 2.5602 17.2995C2.88032 17.0959 3.25552 16.9961 3.6345 17.0138L4.95592 17.0841C5.21257 17.0984 5.46933 17.0583 5.70944 16.9665C5.94955 16.8748 6.1676 16.7334 6.34936 16.5517C6.53112 16.3699 6.67249 16.1519 6.76423 15.9118C6.85598 15.6716 6.89605 15.4149 6.88182 15.1582V13.8509C6.85605 13.4704 6.94997 13.0913 7.15042 12.7669C7.35087 12.4424 7.6478 12.1888 7.99961 12.0416C8.35143 11.8943 8.74049 11.8609 9.11228 11.9458C9.48407 12.0308 9.81997 12.23 10.0729 12.5154L10.9585 13.4994Z" stroke="white" stroke-width="1.68692" stroke-linecap="round" stroke-linejoin="round"/>
<path d="M10.9585 13.4994C11.1311 13.6896 11.3416 13.8416 11.5765 13.9456C11.8113 14.0495 12.0653 14.1033 12.3221 14.1033C12.5789 14.1033 12.8329 14.0495 13.0678 13.9456C13.3026 13.8416 13.5131 13.6896 13.6857 13.4994L14.5713 12.5154C14.8243 12.23 15.1602 12.0308 15.532 11.9458C15.9038 11.8609 16.2928 11.8943 16.6446 12.0416C16.9964 12.1888 17.2934 12.4424 17.4938 12.7669C17.6943 13.0913 17.7882 13.4704 17.7624 13.8509V15.1582C17.7482 15.4149 17.7883 15.6716 17.88 15.9118C17.9718 16.1519 18.1131 16.3699 18.2949 16.5517C18.4766 16.7334 18.6947 16.8748 18.9348 16.9665C19.1749 17.0583 19.4317 17.0984 19.6883 17.0841L21.0097 17.0138C21.3887 16.9961 21.7639 17.0959 22.084 17.2995C22.4042 17.5032 22.6536 17.8007 22.7982 18.1515C22.9428 18.5022 22.9755 18.8891 22.8919 19.2592C22.8084 19.6292 22.6125 19.9644 22.3312 20.219L21.3471 21.0906C21.1529 21.269 20.9987 21.4865 20.8945 21.7288C20.7903 21.971 20.7386 22.2326 20.7426 22.4963C20.7367 22.7603 20.7877 23.0224 20.892 23.265C20.9963 23.5075 21.1515 23.7248 21.3471 23.9021L22.3312 24.7877C22.6117 25.0425 22.8069 25.3778 22.8899 25.7476C22.9729 26.1174 22.9398 26.5039 22.7951 26.8542C22.6503 27.2032 22.4008 27.4988 22.0811 27.7002C21.7614 27.9016 21.3871 27.9989 21.0097 27.9788H19.6883C19.4317 27.9646 19.1749 28.0046 18.9348 28.0964C18.6947 28.1881 18.4766 28.3295 18.2949 28.5112C18.1131 28.693 17.9718 28.9111 17.88 29.1512C17.7883 29.3913 17.7482 29.648 17.7624 29.9047V31.212C17.7849 31.5913 17.6887 31.9682 17.487 32.2903C17.2854 32.6123 16.9884 32.8635 16.6373 33.0088C16.2863 33.1542 15.8986 33.1865 15.5284 33.1013C15.1581 33.0161 14.8236 32.8176 14.5713 32.5335L13.6857 31.5635C13.5131 31.3733 13.3026 31.2214 13.0678 31.1174C12.8329 31.0134 12.5789 30.9597 12.3221 30.9597C12.0653 30.9597 11.8113 31.0134 11.5765 31.1174C11.3416 31.2214 11.1311 31.3733 10.9585 31.5635L10.0729 32.5335C9.82068 32.8176 9.48616 33.0161 9.11588 33.1013C8.74559 33.1865 8.35796 33.1542 8.00691 33.0088C7.65586 32.8635 7.35885 32.6123 7.1572 32.2903C6.95555 31.9682 6.85929 31.5913 6.88182 31.212V29.9047C6.89605 29.648 6.85598 29.3913 6.76423 29.1512C6.67249 28.9111 6.53112 28.693 6.34936 28.5112C6.1676 28.3295 5.94955 28.1881 5.70944 28.0964C5.46933 28.0046 5.21257 27.9646 4.95592 27.9788H3.6345C3.25717 27.9989 2.88287 27.9016 2.56314 27.7002C2.24342 27.4988 1.99398 27.2032 1.84918 26.8542C1.70444 26.5039 1.67132 26.1174 1.75434 25.7476C1.83737 25.3778 2.03249 25.0425 2.31308 24.7877L3.29712 23.9021C3.49276 23.7248 3.64799 23.5075 3.75228 23.265C3.85658 23.0224 3.9075 22.7603 3.9016 22.4963C3.90569 22.2326 3.85394 21.971 3.74976 21.7288C3.64558 21.4865 3.49132 21.269 3.29712 21.0906L2.31308 20.219C2.03174 19.9644 1.83589 19.6292 1.75229 19.2592C1.6687 18.8891 1.70144 18.5022 1.84605 18.1515C1.99066 17.8007 2.24008 17.5032 2.5602 17.2995C2.88032 17.0959 3.25552 16.9961 3.6345 17.0138L4.95592 17.0841C5.21257 17.0984 5.46933 17.0583 5.70944 16.9665C5.94955 16.8748 6.1676 16.7334 6.34936 16.5517C6.53112 16.3699 6.67249 16.1519 6.76423 15.9118C6.85598 15.6716 6.89605 15.4149 6.88182 15.1582V13.8509C6.85605 13.4704 6.94997 13.0913 7.15042 12.7669C7.35087 12.4424 7.6478 12.1888 7.99961 12.0416C8.35143 11.8943 8.74049 11.8609 9.11228 11.9458C9.48407 12.0308 9.81997 12.23 10.0729 12.5154L10.9585 13.4994Z" stroke="url(#paint0_radial_882_11326)" stroke-width="1.68692" stroke-linecap="round" stroke-linejoin="round"/>
<path d="M12.3225 25.0972C13.7821 25.0972 14.9654 23.914 14.9654 22.4544C14.9654 20.9948 13.7821 19.8115 12.3225 19.8115C10.8629 19.8115 9.67969 20.9948 9.67969 22.4544C9.67969 23.914 10.8629 25.0972 12.3225 25.0972Z" stroke="white" stroke-width="1.68692" stroke-linecap="round" stroke-linejoin="round"/>
<path d="M12.3225 25.0972C13.7821 25.0972 14.9654 23.914 14.9654 22.4544C14.9654 20.9948 13.7821 19.8115 12.3225 19.8115C10.8629 19.8115 9.67969 20.9948 9.67969 22.4544C9.67969 23.914 10.8629 25.0972 12.3225 25.0972Z" stroke="url(#paint1_radial_882_11326)" stroke-width="1.68692" stroke-linecap="round" stroke-linejoin="round"/>
<path d="M26.3943 7.70801C26.2079 7.70801 26.0291 7.78206 25.8973 7.91388C25.7655 8.04569 25.6914 8.22447 25.6914 8.41089C25.6914 8.59731 25.7655 8.77609 25.8973 8.9079C26.0291 9.03972 26.2079 9.11377 26.3943 9.11377C26.5807 9.11377 26.7595 9.03972 26.8913 8.9079C27.0231 8.77609 27.0972 8.59731 27.0972 8.41089C27.0972 8.22447 27.0231 8.04569 26.8913 7.91388C26.7595 7.78206 26.5807 7.70801 26.3943 7.70801Z" stroke="white" stroke-width="1.68692" stroke-linecap="round" stroke-linejoin="round"/>
<path d="M26.3943 7.70801C26.2079 7.70801 26.0291 7.78206 25.8973 7.91388C25.7655 8.04569 25.6914 8.22447 25.6914 8.41089C25.6914 8.59731 25.7655 8.77609 25.8973 8.9079C26.0291 9.03972 26.2079 9.11377 26.3943 9.11377C26.5807 9.11377 26.7595 9.03972 26.8913 8.9079C27.0231 8.77609 27.0972 8.59731 27.0972 8.41089C27.0972 8.22447 27.0231 8.04569 26.8913 7.91388C26.7595 7.78206 26.5807 7.70801 26.3943 7.70801Z" stroke="url(#paint2_radial_882_11326)" stroke-width="1.68692" stroke-linecap="round" stroke-linejoin="round"/>
<path d="M30.2471 3.04073C30.4514 2.96034 30.6746 2.94146 30.8895 2.98642C31.1043 3.03138 31.3013 3.13822 31.4561 3.29377C31.6122 3.45118 31.7202 3.64982 31.7676 3.86642C31.8149 4.08302 31.7995 4.30861 31.7232 4.51678L30.9641 6.47079C30.8757 6.69651 30.8608 6.94433 30.9213 7.17904C30.9819 7.41374 31.1149 7.62338 31.3015 7.77815L33.0587 9.08551C33.2322 9.22225 33.3611 9.40765 33.4287 9.61801C33.4963 9.82836 33.4996 10.0541 33.4382 10.2664C33.3848 10.4832 33.268 10.6792 33.1028 10.8294C32.9376 10.9796 32.7313 11.0772 32.5104 11.1098L30.444 11.4191C30.2043 11.4575 29.9828 11.5705 29.8112 11.7422C29.6395 11.9138 29.5264 12.1353 29.488 12.375L29.1647 14.4555C29.1297 14.6728 29.0326 14.8752 28.8849 15.0384C28.7373 15.2016 28.5456 15.3185 28.3329 15.375C28.1203 15.4315 27.8958 15.4252 27.6867 15.3568C27.4775 15.2885 27.2927 15.1609 27.1545 14.9897L25.833 13.359C25.6854 13.147 25.4684 12.9932 25.2196 12.9239C24.9707 12.8546 24.7054 12.8743 24.4695 12.9795L22.5154 13.7386C22.3092 13.8196 22.0837 13.8386 21.8668 13.7934C21.6499 13.7481 21.4508 13.6406 21.2941 13.4839C21.1374 13.3271 21.0299 13.1281 20.9846 12.9112C20.9394 12.6942 20.9584 12.4688 21.0394 12.2625L21.8126 10.3366C21.8951 10.109 21.9057 9.86145 21.8428 9.6276C21.7799 9.39374 21.6467 9.18487 21.4611 9.02928L19.8164 7.72192C19.6455 7.57802 19.5202 7.38758 19.4555 7.17375C19.3909 6.95993 19.3898 6.73194 19.4524 6.51749C19.5149 6.30305 19.6384 6.1114 19.8079 5.96585C19.9773 5.8203 20.1854 5.72711 20.4068 5.69762L22.4733 5.38835C22.713 5.34996 22.9344 5.23688 23.1061 5.06523C23.2777 4.89358 23.3908 4.67213 23.4292 4.43243L23.7525 2.3519C23.7891 2.13475 23.8864 1.93238 24.0332 1.76819C24.18 1.60401 24.3702 1.48472 24.5819 1.4241C24.7958 1.36982 25.0207 1.37805 25.23 1.44783C25.4393 1.5176 25.6242 1.64598 25.7628 1.81771L27.0842 3.4484C27.2321 3.63984 27.4384 3.77776 27.6718 3.8412C27.9053 3.90463 28.153 3.89011 28.3775 3.79984L30.2471 3.04073Z" stroke="white" stroke-width="1.68692" stroke-linecap="round" stroke-linejoin="round"/>
<path d="M30.2471 3.04073C30.4514 2.96034 30.6746 2.94146 30.8895 2.98642C31.1043 3.03138 31.3013 3.13822 31.4561 3.29377C31.6122 3.45118 31.7202 3.64982 31.7676 3.86642C31.8149 4.08302 31.7995 4.30861 31.7232 4.51678L30.9641 6.47079C30.8757 6.69651 30.8608 6.94433 30.9213 7.17904C30.9819 7.41374 31.1149 7.62338 31.3015 7.77815L33.0587 9.08551C33.2322 9.22225 33.3611 9.40765 33.4287 9.61801C33.4963 9.82836 33.4996 10.0541 33.4382 10.2664C33.3848 10.4832 33.268 10.6792 33.1028 10.8294C32.9376 10.9796 32.7313 11.0772 32.5104 11.1098L30.444 11.4191C30.2043 11.4575 29.9828 11.5705 29.8112 11.7422C29.6395 11.9138 29.5264 12.1353 29.488 12.375L29.1647 14.4555C29.1297 14.6728 29.0326 14.8752 28.8849 15.0384C28.7373 15.2016 28.5456 15.3185 28.3329 15.375C28.1203 15.4315 27.8958 15.4252 27.6867 15.3568C27.4775 15.2885 27.2927 15.1609 27.1545 14.9897L25.833 13.359C25.6854 13.147 25.4684 12.9932 25.2196 12.9239C24.9707 12.8546 24.7054 12.8743 24.4695 12.9795L22.5154 13.7386C22.3092 13.8196 22.0837 13.8386 21.8668 13.7934C21.6499 13.7481 21.4508 13.6406 21.2941 13.4839C21.1374 13.3271 21.0299 13.1281 20.9846 12.9112C20.9394 12.6942 20.9584 12.4688 21.0394 12.2625L21.8126 10.3366C21.8951 10.109 21.9057 9.86145 21.8428 9.6276C21.7799 9.39374 21.6467 9.18487 21.4611 9.02928L19.8164 7.72192C19.6455 7.57802 19.5202 7.38758 19.4555 7.17375C19.3909 6.95993 19.3898 6.73194 19.4524 6.51749C19.5149 6.30305 19.6384 6.1114 19.8079 5.96585C19.9773 5.8203 20.1854 5.72711 20.4068 5.69762L22.4733 5.38835C22.713 5.34996 22.9344 5.23688 23.1061 5.06523C23.2777 4.89358 23.3908 4.67213 23.4292 4.43243L23.7525 2.3519C23.7891 2.13475 23.8864 1.93238 24.0332 1.76819C24.18 1.60401 24.3702 1.48472 24.5819 1.4241C24.7958 1.36982 25.0207 1.37805 25.23 1.44783C25.4393 1.5176 25.6242 1.64598 25.7628 1.81771L27.0842 3.4484C27.2321 3.63984 27.4384 3.77776 27.6718 3.8412C27.9053 3.90463 28.153 3.89011 28.3775 3.79984L30.2471 3.04073Z" stroke="url(#paint3_radial_882_11326)" stroke-width="1.68692" stroke-linecap="round" stroke-linejoin="round"/>
</g>
<defs>
<radialGradient id="paint0_radial_882_11326" cx="0" cy="0" r="1" gradientUnits="userSpaceOnUse" gradientTransform="translate(2.68362 5.95046) rotate(70.9644) scale(53.7877 99.5652)">
<stop offset="0.0104167" stop-color="#6D6D6D"/>
<stop offset="0.422115" stop-color="#FF00E5"/>
<stop offset="0.933071" stop-color="#D3FEB8" stop-opacity="0.92"/>
</radialGradient>
<radialGradient id="paint1_radial_882_11326" cx="0" cy="0" r="1" gradientUnits="userSpaceOnUse" gradientTransform="translate(9.92283 18.3315) rotate(70.9496) scale(13.3815 24.7865)">
<stop offset="0.0104167" stop-color="#6D6D6D"/>
<stop offset="0.422115" stop-color="#FF00E5"/>
<stop offset="0.933071" stop-color="#D3FEB8" stop-opacity="0.92"/>
</radialGradient>
<radialGradient id="paint2_radial_882_11326" cx="0" cy="0" r="1" gradientUnits="userSpaceOnUse" gradientTransform="translate(25.7561 7.31439) rotate(70.9496) scale(3.55891 6.59216)">
<stop offset="0.0104167" stop-color="#6D6D6D"/>
<stop offset="0.422115" stop-color="#FF00E5"/>
<stop offset="0.933071" stop-color="#D3FEB8" stop-opacity="0.92"/>
</radialGradient>
<radialGradient id="paint3_radial_882_11326" cx="0" cy="0" r="1" gradientUnits="userSpaceOnUse" gradientTransform="translate(20.0537 -2.5382) rotate(70.8851) scale(35.5191 65.9806)">
<stop offset="0.0104167" stop-color="#6D6D6D"/>
<stop offset="0.422115" stop-color="#FF00E5"/>
<stop offset="0.933071" stop-color="#D3FEB8" stop-opacity="0.92"/>
</radialGradient>
<clipPath id="clip0_882_11326">
<rect width="33.7383" height="33.7383" fill="white" transform="translate(0.71875 0.327148)"/>
</clipPath>
</defs>
</svg>
