<svg width="40" height="39" viewBox="0 0 40 39" fill="none" xmlns="http://www.w3.org/2000/svg">
<path fill-rule="evenodd" clip-rule="evenodd" d="M32.9519 13.3071C32.9632 13.584 32.967 13.8608 32.967 14.1377C32.967 22.5328 26.7506 32.2245 15.3829 32.2245C11.891 32.2245 8.64397 31.1672 5.9082 29.3674C6.3918 29.4177 6.88294 29.4556 7.38161 29.4556C10.2769 29.4556 12.9436 28.4359 15.0588 26.7241C12.3545 26.6864 10.0709 24.8361 9.28334 22.3189C9.66142 22.3944 10.0508 22.4322 10.449 22.4322C11.0104 22.4322 11.5556 22.3568 12.0781 22.2058C9.24814 21.6268 7.11657 19.0592 7.11657 15.9756C7.11657 15.9378 7.11657 15.9251 7.11657 15.9C7.95062 16.3657 8.90523 16.655 9.9189 16.6928C8.25835 15.5474 7.16679 13.5965 7.16679 11.3939C7.16679 10.236 7.47076 9.1409 8.00586 8.19692C11.0531 12.0484 15.609 14.5783 20.7452 14.8426C20.6397 14.3769 20.5857 13.8861 20.5857 13.3953C20.5857 9.88366 23.3528 7.03906 26.7669 7.03906C28.5442 7.03906 30.1495 7.80695 31.2762 9.04042C32.6868 8.76351 34.0083 8.23492 35.2041 7.50491C34.7406 8.99011 33.7621 10.2359 32.4833 11.0163C33.7344 10.8652 34.9277 10.5257 36.0344 10.0222C35.2041 11.2934 34.159 12.4134 32.9519 13.3071Z" fill="white"/>
</svg>
