<svg width="35" height="35" viewBox="0 0 35 35" fill="none" xmlns="http://www.w3.org/2000/svg">
<path d="M28.4375 17.5C28.4369 16.2073 28.8941 14.9561 29.7281 13.9684C30.562 12.9807 31.7188 12.3202 32.9933 12.1042C33.2484 12.0617 33.4803 11.9301 33.6474 11.7327C33.8145 11.5354 33.9063 11.2851 33.9063 11.0265V7.65625C33.9063 7.0761 33.6758 6.51968 33.2656 6.10945C32.8554 5.69923 32.2989 5.46875 31.7188 5.46875H3.28125C2.7011 5.46875 2.14468 5.69923 1.73445 6.10945C1.32422 6.51968 1.09375 7.0761 1.09375 7.65625V11.0294C1.09369 11.288 1.18541 11.5383 1.35259 11.7356C1.51976 11.933 1.75155 12.0646 2.00667 12.1071C3.28401 12.3199 4.44442 12.9789 5.28146 13.967C6.11851 14.9551 6.5779 16.2079 6.5779 17.5029C6.5779 18.7979 6.11851 20.0508 5.28146 21.0388C4.44442 22.0268 3.28401 22.686 2.00667 22.8987C1.75166 22.9415 1.52005 23.0732 1.35293 23.2705C1.18581 23.4678 1.09398 23.7179 1.09375 23.9765V27.3438C1.09375 27.9239 1.32422 28.4804 1.73445 28.8906C2.14468 29.3008 2.7011 29.5313 3.28125 29.5313H31.7188C32.2989 29.5313 32.8554 29.3008 33.2656 28.8906C33.6758 28.4804 33.9063 27.9239 33.9063 27.3438V23.9706C33.9063 23.7119 33.8145 23.4617 33.6474 23.2644C33.4803 23.067 33.2484 22.9354 32.9933 22.8929C31.7193 22.6769 30.5629 22.0169 29.729 21.0297C28.8951 20.0426 28.4376 18.7922 28.4375 17.5Z" stroke="white" stroke-width="1.5" stroke-linecap="round" stroke-linejoin="round"/>
<path d="M28.4375 17.5C28.4369 16.2073 28.8941 14.9561 29.7281 13.9684C30.562 12.9807 31.7188 12.3202 32.9933 12.1042C33.2484 12.0617 33.4803 11.9301 33.6474 11.7327C33.8145 11.5354 33.9063 11.2851 33.9063 11.0265V7.65625C33.9063 7.0761 33.6758 6.51968 33.2656 6.10945C32.8554 5.69923 32.2989 5.46875 31.7188 5.46875H3.28125C2.7011 5.46875 2.14468 5.69923 1.73445 6.10945C1.32422 6.51968 1.09375 7.0761 1.09375 7.65625V11.0294C1.09369 11.288 1.18541 11.5383 1.35259 11.7356C1.51976 11.933 1.75155 12.0646 2.00667 12.1071C3.28401 12.3199 4.44442 12.9789 5.28146 13.967C6.11851 14.9551 6.5779 16.2079 6.5779 17.5029C6.5779 18.7979 6.11851 20.0508 5.28146 21.0388C4.44442 22.0268 3.28401 22.686 2.00667 22.8987C1.75166 22.9415 1.52005 23.0732 1.35293 23.2705C1.18581 23.4678 1.09398 23.7179 1.09375 23.9765V27.3438C1.09375 27.9239 1.32422 28.4804 1.73445 28.8906C2.14468 29.3008 2.7011 29.5313 3.28125 29.5313H31.7188C32.2989 29.5313 32.8554 29.3008 33.2656 28.8906C33.6758 28.4804 33.9063 27.9239 33.9063 27.3438V23.9706C33.9063 23.7119 33.8145 23.4617 33.6474 23.2644C33.4803 23.067 33.2484 22.9354 32.9933 22.8929C31.7193 22.6769 30.5629 22.0169 29.729 21.0297C28.8951 20.0426 28.4376 18.7922 28.4375 17.5Z" stroke="url(#paint0_radial_1051_8292)" stroke-width="1.5" stroke-linecap="round" stroke-linejoin="round"/>
<path d="M17.5 13.125H25.1563" stroke="white" stroke-width="1.5" stroke-linecap="round" stroke-linejoin="round"/>
<path d="M17.5 13.125H25.1563" stroke="url(#paint1_radial_1051_8292)" stroke-width="1.5" stroke-linecap="round" stroke-linejoin="round"/>
<path d="M22.4219 24.0625C23.932 24.0625 25.1563 22.8382 25.1563 21.3281C25.1563 19.818 23.932 18.5938 22.4219 18.5938C20.9118 18.5938 19.6875 19.818 19.6875 21.3281C19.6875 22.8382 20.9118 24.0625 22.4219 24.0625Z" stroke="white" stroke-width="1.5" stroke-linecap="round" stroke-linejoin="round"/>
<path d="M22.4219 24.0625C23.932 24.0625 25.1563 22.8382 25.1563 21.3281C25.1563 19.818 23.932 18.5938 22.4219 18.5938C20.9118 18.5938 19.6875 19.818 19.6875 21.3281C19.6875 22.8382 20.9118 24.0625 22.4219 24.0625Z" stroke="url(#paint2_radial_1051_8292)" stroke-width="1.5" stroke-linecap="round" stroke-linejoin="round"/>
<path d="M11.4844 12.0313C11.1823 12.0313 10.9375 11.7864 10.9375 11.4844C10.9375 11.1823 11.1823 10.9375 11.4844 10.9375" stroke="white" stroke-width="1.5"/>
<path d="M11.4844 12.0313C11.1823 12.0313 10.9375 11.7864 10.9375 11.4844C10.9375 11.1823 11.1823 10.9375 11.4844 10.9375" stroke="url(#paint3_radial_1051_8292)" stroke-width="1.5"/>
<path d="M11.4844 12.0313C11.7864 12.0313 12.0313 11.7864 12.0313 11.4844C12.0313 11.1823 11.7864 10.9375 11.4844 10.9375" stroke="white" stroke-width="1.5"/>
<path d="M11.4844 12.0313C11.7864 12.0313 12.0313 11.7864 12.0313 11.4844C12.0313 11.1823 11.7864 10.9375 11.4844 10.9375" stroke="url(#paint4_radial_1051_8292)" stroke-width="1.5"/>
<path d="M11.4844 18.5938C11.1823 18.5938 10.9375 18.3489 10.9375 18.0469C10.9375 17.7449 11.1823 17.5 11.4844 17.5" stroke="white" stroke-width="1.5"/>
<path d="M11.4844 18.5938C11.1823 18.5938 10.9375 18.3489 10.9375 18.0469C10.9375 17.7449 11.1823 17.5 11.4844 17.5" stroke="url(#paint5_radial_1051_8292)" stroke-width="1.5"/>
<path d="M11.4844 18.5938C11.7864 18.5938 12.0313 18.3489 12.0313 18.0469C12.0313 17.7449 11.7864 17.5 11.4844 17.5" stroke="white" stroke-width="1.5"/>
<path d="M11.4844 18.5938C11.7864 18.5938 12.0313 18.3489 12.0313 18.0469C12.0313 17.7449 11.7864 17.5 11.4844 17.5" stroke="url(#paint6_radial_1051_8292)" stroke-width="1.5"/>
<path d="M11.4844 25.1563C11.1823 25.1563 10.9375 24.9114 10.9375 24.6094C10.9375 24.3074 11.1823 24.0625 11.4844 24.0625" stroke="white" stroke-width="1.5"/>
<path d="M11.4844 25.1563C11.1823 25.1563 10.9375 24.9114 10.9375 24.6094C10.9375 24.3074 11.1823 24.0625 11.4844 24.0625" stroke="url(#paint7_radial_1051_8292)" stroke-width="1.5"/>
<path d="M11.4844 25.1563C11.7864 25.1563 12.0313 24.9114 12.0313 24.6094C12.0313 24.3074 11.7864 24.0625 11.4844 24.0625" stroke="white" stroke-width="1.5"/>
<path d="M11.4844 25.1563C11.7864 25.1563 12.0313 24.9114 12.0313 24.6094C12.0313 24.3074 11.7864 24.0625 11.4844 24.0625" stroke="url(#paint8_radial_1051_8292)" stroke-width="1.5"/>
<defs>
<radialGradient id="paint0_radial_1051_8292" cx="0" cy="0" r="1" gradientUnits="userSpaceOnUse" gradientTransform="translate(2.60313 -1.26876) rotate(64.7851) scale(63.646 147.275)">
<stop offset="0.0104167" stop-color="#6D6D6D"/>
<stop offset="0.422115" stop-color="#FF00E5"/>
<stop offset="0.933071" stop-color="#D3FEB8" stop-opacity="0.92"/>
</radialGradient>
<radialGradient id="paint1_radial_1051_8292" cx="0" cy="0" r="1" gradientUnits="userSpaceOnUse" gradientTransform="translate(17.8522 12.845) rotate(20.7188) scale(6.76406 13.4378)">
<stop offset="0.0104167" stop-color="#6D6D6D"/>
<stop offset="0.422115" stop-color="#FF00E5"/>
<stop offset="0.933071" stop-color="#D3FEB8" stop-opacity="0.92"/>
</radialGradient>
<radialGradient id="paint2_radial_1051_8292" cx="0" cy="0" r="1" gradientUnits="userSpaceOnUse" gradientTransform="translate(19.9391 17.0625) rotate(70.9496) scale(13.845 25.645)">
<stop offset="0.0104167" stop-color="#6D6D6D"/>
<stop offset="0.422115" stop-color="#FF00E5"/>
<stop offset="0.933071" stop-color="#D3FEB8" stop-opacity="0.92"/>
</radialGradient>
<radialGradient id="paint3_radial_1051_8292" cx="0" cy="0" r="1" gradientUnits="userSpaceOnUse" gradientTransform="translate(10.9627 10.6312) rotate(80.2041) scale(2.65607 2.67354)">
<stop offset="0.0104167" stop-color="#6D6D6D"/>
<stop offset="0.422115" stop-color="#FF00E5"/>
<stop offset="0.933071" stop-color="#D3FEB8" stop-opacity="0.92"/>
</radialGradient>
<radialGradient id="paint4_radial_1051_8292" cx="0" cy="0" r="1" gradientUnits="userSpaceOnUse" gradientTransform="translate(11.5095 10.6312) rotate(80.2041) scale(2.65607 2.67354)">
<stop offset="0.0104167" stop-color="#6D6D6D"/>
<stop offset="0.422115" stop-color="#FF00E5"/>
<stop offset="0.933071" stop-color="#D3FEB8" stop-opacity="0.92"/>
</radialGradient>
<radialGradient id="paint5_radial_1051_8292" cx="0" cy="0" r="1" gradientUnits="userSpaceOnUse" gradientTransform="translate(10.9627 17.1937) rotate(80.2041) scale(2.65607 2.67354)">
<stop offset="0.0104167" stop-color="#6D6D6D"/>
<stop offset="0.422115" stop-color="#FF00E5"/>
<stop offset="0.933071" stop-color="#D3FEB8" stop-opacity="0.92"/>
</radialGradient>
<radialGradient id="paint6_radial_1051_8292" cx="0" cy="0" r="1" gradientUnits="userSpaceOnUse" gradientTransform="translate(11.5095 17.1937) rotate(80.2041) scale(2.65607 2.67354)">
<stop offset="0.0104167" stop-color="#6D6D6D"/>
<stop offset="0.422115" stop-color="#FF00E5"/>
<stop offset="0.933071" stop-color="#D3FEB8" stop-opacity="0.92"/>
</radialGradient>
<radialGradient id="paint7_radial_1051_8292" cx="0" cy="0" r="1" gradientUnits="userSpaceOnUse" gradientTransform="translate(10.9627 23.7562) rotate(80.2041) scale(2.65607 2.67354)">
<stop offset="0.0104167" stop-color="#6D6D6D"/>
<stop offset="0.422115" stop-color="#FF00E5"/>
<stop offset="0.933071" stop-color="#D3FEB8" stop-opacity="0.92"/>
</radialGradient>
<radialGradient id="paint8_radial_1051_8292" cx="0" cy="0" r="1" gradientUnits="userSpaceOnUse" gradientTransform="translate(11.5095 23.7562) rotate(80.2041) scale(2.65607 2.67354)">
<stop offset="0.0104167" stop-color="#6D6D6D"/>
<stop offset="0.422115" stop-color="#FF00E5"/>
<stop offset="0.933071" stop-color="#D3FEB8" stop-opacity="0.92"/>
</radialGradient>
</defs>
</svg>
