<svg width="36" height="36" viewBox="0 0 36 36" fill="none" xmlns="http://www.w3.org/2000/svg">
<g clip-path="url(#clip0_1051_8283)">
<path d="M28.8572 21.4908C30.2723 21.4908 31.4195 20.3436 31.4195 18.9285C31.4195 17.5134 30.2723 16.3662 28.8572 16.3662C27.4421 16.3662 26.2949 17.5134 26.2949 18.9285C26.2949 20.3436 27.4421 21.4908 28.8572 21.4908Z" stroke="white" stroke-width="1.5" stroke-linecap="round" stroke-linejoin="round"/>
<path d="M28.8572 21.4908C30.2723 21.4908 31.4195 20.3436 31.4195 18.9285C31.4195 17.5134 30.2723 16.3662 28.8572 16.3662C27.4421 16.3662 26.2949 17.5134 26.2949 18.9285C26.2949 20.3436 27.4421 21.4908 28.8572 21.4908Z" stroke="url(#paint0_radial_1051_8283)" stroke-width="1.5" stroke-linecap="round" stroke-linejoin="round"/>
<path d="M33.0428 24.6888C32.5484 24.0514 31.9147 23.5355 31.1903 23.1805C30.4659 22.8256 29.6699 22.6411 28.8632 22.6411C28.0565 22.6411 27.2605 22.8256 26.5361 23.1805C25.8116 23.5355 25.178 24.0514 24.6836 24.6888" stroke="white" stroke-width="1.5" stroke-linecap="round" stroke-linejoin="round"/>
<path d="M33.0428 24.6888C32.5484 24.0514 31.9147 23.5355 31.1903 23.1805C30.4659 22.8256 29.6699 22.6411 28.8632 22.6411C28.0565 22.6411 27.2605 22.8256 26.5361 23.1805C25.8116 23.5355 25.178 24.0514 24.6836 24.6888" stroke="url(#paint1_radial_1051_8283)" stroke-width="1.5" stroke-linecap="round" stroke-linejoin="round"/>
<path d="M8.09354 21.4908C9.50866 21.4908 10.6558 20.3436 10.6558 18.9285C10.6558 17.5134 9.50866 16.3662 8.09354 16.3662C6.67843 16.3662 5.53125 17.5134 5.53125 18.9285C5.53125 20.3436 6.67843 21.4908 8.09354 21.4908Z" stroke="white" stroke-width="1.5" stroke-linecap="round" stroke-linejoin="round"/>
<path d="M8.09354 21.4908C9.50866 21.4908 10.6558 20.3436 10.6558 18.9285C10.6558 17.5134 9.50866 16.3662 8.09354 16.3662C6.67843 16.3662 5.53125 17.5134 5.53125 18.9285C5.53125 20.3436 6.67843 21.4908 8.09354 21.4908Z" stroke="url(#paint2_radial_1051_8283)" stroke-width="1.5" stroke-linecap="round" stroke-linejoin="round"/>
<path d="M3.90625 24.6874C4.3998 24.0498 5.03257 23.5335 5.75622 23.1779C6.47987 22.8223 7.27523 22.6369 8.08152 22.6357C8.88781 22.6346 9.68369 22.8178 10.4083 23.1714C11.133 23.525 11.7672 24.0395 12.2625 24.6757" stroke="white" stroke-width="1.5" stroke-linecap="round" stroke-linejoin="round"/>
<path d="M3.90625 24.6874C4.3998 24.0498 5.03257 23.5335 5.75622 23.1779C6.47987 22.8223 7.27523 22.6369 8.08152 22.6357C8.88781 22.6346 9.68369 22.8178 10.4083 23.1714C11.133 23.525 11.7672 24.0395 12.2625 24.6757" stroke="url(#paint3_radial_1051_8283)" stroke-width="1.5" stroke-linecap="round" stroke-linejoin="round"/>
<path d="M25.009 26.7101C25.009 24.977 24.3206 23.3148 23.095 22.0893C21.8695 20.8638 20.2074 20.1753 18.4742 20.1753C16.7411 20.1753 15.079 20.8638 13.8534 22.0893C12.6279 23.3148 11.9395 24.977 11.9395 26.7101" stroke="white" stroke-width="1.5" stroke-linecap="round" stroke-linejoin="round"/>
<path d="M25.009 26.7101C25.009 24.977 24.3206 23.3148 23.095 22.0893C21.8695 20.8638 20.2074 20.1753 18.4742 20.1753C16.7411 20.1753 15.079 20.8638 13.8534 22.0893C12.6279 23.3148 11.9395 24.977 11.9395 26.7101" stroke="url(#paint4_radial_1051_8283)" stroke-width="1.5" stroke-linecap="round" stroke-linejoin="round"/>
<path d="M18.4066 18.3918C20.5393 18.3918 22.2683 16.6629 22.2683 14.5301C22.2683 12.3974 20.5393 10.6685 18.4066 10.6685C16.2738 10.6685 14.5449 12.3974 14.5449 14.5301C14.5449 16.6629 16.2738 18.3918 18.4066 18.3918Z" stroke="white" stroke-width="1.5" stroke-linecap="round" stroke-linejoin="round"/>
<path d="M18.4066 18.3918C20.5393 18.3918 22.2683 16.6629 22.2683 14.5301C22.2683 12.3974 20.5393 10.6685 18.4066 10.6685C16.2738 10.6685 14.5449 12.3974 14.5449 14.5301C14.5449 16.6629 16.2738 18.3918 18.4066 18.3918Z" stroke="url(#paint5_radial_1051_8283)" stroke-width="1.5" stroke-linecap="round" stroke-linejoin="round"/>
<path d="M18.4746 34.3662C27.5355 34.3662 34.8809 27.0209 34.8809 17.96C34.8809 8.89904 27.5355 1.55371 18.4746 1.55371C9.41369 1.55371 2.06836 8.89904 2.06836 17.96C2.06836 27.0209 9.41369 34.3662 18.4746 34.3662Z" stroke="white" stroke-width="1.5" stroke-linecap="round" stroke-linejoin="round"/>
<path d="M18.4746 34.3662C27.5355 34.3662 34.8809 27.0209 34.8809 17.96C34.8809 8.89904 27.5355 1.55371 18.4746 1.55371C9.41369 1.55371 2.06836 8.89904 2.06836 17.96C2.06836 27.0209 9.41369 34.3662 18.4746 34.3662Z" stroke="url(#paint6_radial_1051_8283)" stroke-width="1.5" stroke-linecap="round" stroke-linejoin="round"/>
</g>
<defs>
<radialGradient id="paint0_radial_1051_8283" cx="0" cy="0" r="1" gradientUnits="userSpaceOnUse" gradientTransform="translate(26.5307 14.9313) rotate(70.9496) scale(12.9737 24.0311)">
<stop offset="0.0104167" stop-color="#6D6D6D"/>
<stop offset="0.422115" stop-color="#FF00E5"/>
<stop offset="0.933071" stop-color="#D3FEB8" stop-opacity="0.92"/>
</radialGradient>
<radialGradient id="paint1_radial_1051_8283" cx="0" cy="0" r="1" gradientUnits="userSpaceOnUse" gradientTransform="translate(25.0681 22.0678) rotate(35.3517) scale(8.469 23.9946)">
<stop offset="0.0104167" stop-color="#6D6D6D"/>
<stop offset="0.422115" stop-color="#FF00E5"/>
<stop offset="0.933071" stop-color="#D3FEB8" stop-opacity="0.92"/>
</radialGradient>
<radialGradient id="paint2_radial_1051_8283" cx="0" cy="0" r="1" gradientUnits="userSpaceOnUse" gradientTransform="translate(5.76698 14.9313) rotate(70.9496) scale(12.9737 24.0311)">
<stop offset="0.0104167" stop-color="#6D6D6D"/>
<stop offset="0.422115" stop-color="#FF00E5"/>
<stop offset="0.933071" stop-color="#D3FEB8" stop-opacity="0.92"/>
</radialGradient>
<radialGradient id="paint3_radial_1051_8283" cx="0" cy="0" r="1" gradientUnits="userSpaceOnUse" gradientTransform="translate(4.29064 22.0613) rotate(35.4134) scale(8.47253 24.0226)">
<stop offset="0.0104167" stop-color="#6D6D6D"/>
<stop offset="0.422115" stop-color="#FF00E5"/>
<stop offset="0.933071" stop-color="#D3FEB8" stop-opacity="0.92"/>
</radialGradient>
<radialGradient id="paint4_radial_1051_8283" cx="0" cy="0" r="1" gradientUnits="userSpaceOnUse" gradientTransform="translate(12.5407 18.3455) rotate(55.3701) scale(19.0046 53.3524)">
<stop offset="0.0104167" stop-color="#6D6D6D"/>
<stop offset="0.422115" stop-color="#FF00E5"/>
<stop offset="0.933071" stop-color="#D3FEB8" stop-opacity="0.92"/>
</radialGradient>
<radialGradient id="paint5_radial_1051_8283" cx="0" cy="0" r="1" gradientUnits="userSpaceOnUse" gradientTransform="translate(14.9002 8.50592) rotate(70.9496) scale(19.5528 36.2176)">
<stop offset="0.0104167" stop-color="#6D6D6D"/>
<stop offset="0.422115" stop-color="#FF00E5"/>
<stop offset="0.933071" stop-color="#D3FEB8" stop-opacity="0.92"/>
</radialGradient>
<radialGradient id="paint6_radial_1051_8283" cx="0" cy="0" r="1" gradientUnits="userSpaceOnUse" gradientTransform="translate(3.57774 -7.6338) rotate(70.9496) scale(83.0699 153.87)">
<stop offset="0.0104167" stop-color="#6D6D6D"/>
<stop offset="0.422115" stop-color="#FF00E5"/>
<stop offset="0.933071" stop-color="#D3FEB8" stop-opacity="0.92"/>
</radialGradient>
<clipPath id="clip0_1051_8283">
<rect width="35" height="35" fill="white" transform="translate(0.974609 0.459961)"/>
</clipPath>
</defs>
</svg>
