<svg width="26" height="26" viewBox="0 0 26 26" fill="none" xmlns="http://www.w3.org/2000/svg">
<g id="Group 70">
<circle id="Ellipse 36" cx="13" cy="13" r="13" fill="black"/>
<g id="Layer 1">
<path id="Vector" d="M17.1658 6.81643L14.2886 11.0883C14.2476 11.1498 14.2303 11.2241 14.2398 11.2974C14.2494 11.3707 14.2851 11.438 14.3405 11.487C14.3959 11.536 14.4671 11.5632 14.541 11.5637C14.615 11.5642 14.6866 11.5379 14.7426 11.4897L17.5749 9.03312C17.5915 9.01827 17.612 9.00857 17.6341 9.00521C17.6561 9.00185 17.6786 9.00498 17.6989 9.0142C17.7191 9.02342 17.7363 9.03835 17.7482 9.05715C17.7601 9.07596 17.7663 9.09783 17.7661 9.1201V16.8111C17.766 16.8347 17.7588 16.8576 17.7453 16.8769C17.7318 16.8962 17.7126 16.9109 17.6905 16.9189C17.6684 16.9269 17.6443 16.928 17.6216 16.9219C17.5988 16.9157 17.5785 16.9028 17.5634 16.8847L9.00253 6.63672C8.86483 6.47412 8.69337 6.34346 8.50007 6.25383C8.30677 6.16419 8.09626 6.11773 7.88319 6.11768H7.584C7.19511 6.11768 6.82214 6.27216 6.54715 6.54715C6.27216 6.82214 6.11768 7.19511 6.11768 7.584V18.4161C6.11768 18.805 6.27216 19.1779 6.54715 19.4529C6.82214 19.7279 7.19511 19.8824 7.584 19.8824C7.83474 19.8824 8.08132 19.8183 8.3002 19.6959C8.51908 19.5736 8.70296 19.3972 8.83429 19.1836L11.7115 14.9118C11.7525 14.8503 11.7698 14.776 11.7602 14.7027C11.7507 14.6294 11.7149 14.562 11.6595 14.5131C11.6042 14.4641 11.5329 14.4369 11.459 14.4363C11.3851 14.4358 11.3135 14.4621 11.2575 14.5103L8.42518 16.9669C8.40858 16.9818 8.38801 16.9915 8.366 16.9948C8.34398 16.9982 8.32146 16.9951 8.30119 16.9859C8.28092 16.9766 8.26377 16.9617 8.25184 16.9429C8.23991 16.9241 8.23371 16.9022 8.234 16.88V9.18701C8.23401 9.16347 8.24126 9.1405 8.25478 9.12122C8.26829 9.10194 8.28742 9.08728 8.30955 9.07924C8.33168 9.0712 8.35575 9.07017 8.37848 9.07628C8.40122 9.0824 8.42153 9.09536 8.43665 9.11341L16.9966 19.3633C17.1343 19.5259 17.3057 19.6566 17.499 19.7462C17.6923 19.8359 17.9028 19.8823 18.1159 19.8824H18.4151C18.6077 19.8825 18.7985 19.8447 18.9765 19.771C19.1545 19.6974 19.3163 19.5894 19.4526 19.4532C19.5888 19.3171 19.6969 19.1554 19.7707 18.9774C19.8444 18.7995 19.8824 18.6087 19.8824 18.4161V7.584C19.8824 7.19511 19.7279 6.82214 19.4529 6.54715C19.1779 6.27216 18.805 6.11768 18.4161 6.11768C18.1653 6.11761 17.9187 6.1818 17.6999 6.30413C17.481 6.42645 17.2971 6.60283 17.1658 6.81643Z" fill="white"/>
</g>
</g>
</svg>
