<svg width="36" height="47" viewBox="0 0 36 47" fill="none" xmlns="http://www.w3.org/2000/svg">
<path fill-rule="evenodd" clip-rule="evenodd" d="M10.6294 1.49632C11.2001 1.64707 11.8187 1.19518 12.0112 0.486991C12.031 0.414186 12.0455 0.341506 12.055 0.269531L33.1167 5.8335C32.807 7.95583 33.8084 9.91026 35.5349 10.3664C35.6512 10.397 35.768 10.4202 35.8852 10.4362L35.3567 12.3808H35.3565C34.7859 12.23 34.1673 12.6819 33.9748 13.3901C33.7823 14.0983 34.0889 14.7946 34.6595 14.9454H34.6597L34.1369 16.8689L34.1365 16.8688C33.5657 16.718 32.9471 17.1699 32.7547 17.8782C32.5622 18.5863 32.8687 19.2826 33.4395 19.4334L33.4399 19.4336L32.9172 21.3568C32.3466 21.2061 31.7281 21.658 31.5356 22.3662C31.3432 23.0742 31.6497 23.7705 32.2202 23.9214L31.6974 25.8449H31.6973C31.1267 25.6941 30.5081 26.146 30.3156 26.8542C30.123 27.5624 30.4297 28.2587 31.0003 28.4095H31.0004L30.4777 30.3329C29.907 30.1821 29.2884 30.634 29.096 31.3422C28.9035 32.0504 29.21 32.7467 29.7807 32.8975L29.2579 34.8208C28.6874 34.6702 28.0689 35.1221 27.8764 35.8303C27.684 36.5383 27.9905 37.2345 28.5609 37.3855L28.0382 39.309C28.0381 39.309 28.0381 39.3089 28.0381 39.3089C27.4674 39.1581 26.8488 39.61 26.6563 40.3183C26.4639 41.0264 26.7705 41.7228 27.3411 41.8735C27.3411 41.8736 27.3412 41.8736 27.3412 41.8736L26.8185 43.7969C25.0919 43.3409 23.2336 44.5398 22.4255 46.5304L1.03351 40.8792C1.22598 40.171 0.919414 39.4747 0.348773 39.324L0.348633 39.3239L0.871372 37.4006C1.442 37.5512 2.0606 37.0993 2.25307 36.3912C2.44553 35.683 2.13898 34.9867 1.56837 34.836L2.09114 32.9125H2.09145C2.66209 33.0632 3.28071 32.6113 3.47318 31.9032C3.66565 31.1949 3.35908 30.4986 2.78844 30.3479L2.78814 30.3478L3.31087 28.4245H3.311C3.88165 28.5752 4.50027 28.1233 4.69274 27.4152C4.88521 26.7069 4.57864 26.0106 4.008 25.8599H4.00787L4.53061 23.9365C5.10123 24.0872 5.71983 23.6353 5.9123 22.9271C6.10477 22.2189 5.79821 21.5226 5.22761 21.3719L5.75034 19.4485C6.32092 19.599 6.93941 19.1472 7.13186 18.4391C7.3243 17.731 7.01784 17.0347 6.44734 16.8839L6.97011 14.9604H6.97023C7.54087 15.1111 8.1595 14.6592 8.35197 13.9511C8.54444 13.2428 8.23787 12.5465 7.66724 12.3958H7.66712L8.18988 10.4723L8.19035 10.4724C8.76099 10.6231 9.37961 10.1712 9.57208 9.46305C9.76456 8.75485 9.45798 8.05855 8.88735 7.9078L8.88688 7.90767L9.40958 5.98441C9.9802 6.13499 10.5986 5.68311 10.7911 4.97502C10.9835 4.26692 10.6771 3.57071 10.1066 3.41983L10.6293 1.49629L10.6294 1.49632Z" fill="url(#paint0_linear_1024_5947)"/>
<defs>
<linearGradient id="paint0_linear_1024_5947" x1="18.4171" y1="19.6644" x2="24.9086" y2="59.9121" gradientUnits="userSpaceOnUse">
<stop stop-color="white"/>
<stop offset="1" stop-color="#6D6D6D"/>
</linearGradient>
</defs>
</svg>
