<svg width="655" height="206" viewBox="0 0 655 206" fill="none" xmlns="http://www.w3.org/2000/svg">
<path fill-rule="evenodd" clip-rule="evenodd" d="M44.9171 6.42038C47.3289 7.06735 49.943 5.12796 50.7563 2.08866C50.8399 1.7762 50.9012 1.46429 50.9415 1.1554L139.944 25.0341C138.635 34.1424 142.867 42.5302 150.163 44.4876C150.654 44.6192 151.148 44.7188 151.643 44.7874L149.41 53.1329C146.998 52.4859 144.384 54.4252 143.57 57.4644C142.757 60.5039 144.052 63.4922 146.464 64.1392L144.255 72.3943L144.253 72.3939C141.842 71.7469 139.228 73.6862 138.414 76.7258C137.601 79.7649 138.896 82.7532 141.308 83.4002L141.31 83.401L139.101 91.6549C136.69 91.0083 134.076 92.9477 133.263 95.9868C132.449 99.0255 133.745 102.014 136.156 102.661L133.946 110.916C131.535 110.269 128.92 112.209 128.107 115.248C127.293 118.287 128.589 121.276 131.001 121.923L128.792 130.177C126.381 129.53 123.767 131.47 122.953 134.509C122.14 137.548 123.435 140.537 125.847 141.184L123.638 149.438C121.227 148.792 118.613 150.731 117.8 153.77C116.986 156.809 118.282 159.797 120.692 160.445L118.483 168.7C116.072 168.053 113.457 169.992 112.644 173.031C111.83 176.07 113.126 179.059 115.537 179.706L113.329 187.96C106.033 186.003 98.18 191.149 94.7652 199.692L4.36673 175.438C5.18006 172.399 3.88456 169.411 1.47314 168.764L3.68155 160.509C6.09291 161.156 8.70699 159.217 9.52032 156.177C10.3337 153.138 9.03822 150.15 6.62694 149.503L8.83605 141.248H8.83736C11.2488 141.895 13.8629 139.956 14.6763 136.916C15.4896 133.877 14.1941 130.889 11.7827 130.242L11.7815 130.241L13.9904 121.987C16.4018 122.634 19.0166 120.695 19.8299 117.655C20.6433 114.616 19.3478 111.628 16.9363 110.981L19.1448 102.726C21.5561 103.373 24.1702 101.434 24.9835 98.394C25.7969 95.3549 24.5014 92.3667 22.0901 91.7196L24.2991 83.4649C26.7103 84.1111 29.3239 82.1722 30.1372 79.133C30.9504 76.0943 29.6553 73.1061 27.2445 72.4586L29.4537 64.2035C31.8651 64.8505 34.4798 62.9112 35.2931 59.872C36.1064 56.8325 34.811 53.8442 32.3996 53.1972L34.6082 44.9421L34.6101 44.9425C37.0215 45.5895 39.6357 43.6502 40.449 40.6109C41.2624 37.5716 39.9669 34.5833 37.5555 33.9363L37.5535 33.9358L39.7623 25.6818C42.1737 26.328 44.787 24.3887 45.6003 21.3498C46.4136 18.3109 45.1187 15.3229 42.7078 14.6754L44.9171 6.42038Z" fill="url(#paint0_linear_55_120)"/>
<path d="M50.9012 2.12743L50.9012 2.12741C50.9712 1.86554 51.026 1.60398 51.0661 1.34413L139.777 25.1446C138.521 34.2484 142.765 42.6581 150.124 44.6325L150.163 44.4876L150.124 44.6325C150.566 44.7508 151.01 44.8436 151.455 44.9115L149.303 52.952C146.825 52.3901 144.235 54.3988 143.425 57.4256C142.615 60.4528 143.855 63.4887 146.281 64.2424L144.148 72.2133C141.67 71.6502 139.079 73.6592 138.269 76.687C137.459 79.7145 138.699 82.7512 141.127 83.5039L138.994 91.474C136.517 90.9125 133.928 92.9213 133.118 95.948C132.308 98.9744 133.547 102.01 135.973 102.764L133.839 110.735C131.362 110.174 128.772 112.182 127.962 115.209C127.152 118.236 128.392 121.272 130.818 122.026L128.685 129.996C126.208 129.435 123.618 131.443 122.808 134.47C121.998 137.497 123.238 140.533 125.664 141.287L123.531 149.257C121.054 148.696 118.465 150.705 117.655 153.731C116.845 156.758 118.084 159.793 120.509 160.548L118.376 168.519C115.899 167.957 113.309 169.965 112.499 172.992C111.689 176.019 112.928 179.055 115.355 179.809L113.223 187.777C105.905 185.909 98.1113 191.056 94.6757 199.512L4.54892 175.332C5.28172 172.354 4.0434 169.402 1.65603 168.661L3.78842 160.69C6.26589 161.252 8.85521 159.243 9.66522 156.216C10.4753 153.189 9.23586 150.154 6.80984 149.4L8.94298 141.429C11.4209 141.991 14.011 139.982 14.8212 136.955L14.6763 136.916L14.8212 136.955C15.6314 133.928 14.3913 130.891 11.9643 130.138L14.0973 122.168C16.5748 122.73 19.1648 120.721 19.9748 117.694C20.7849 114.667 19.5454 111.631 17.1192 110.877L19.2517 102.907C21.7291 103.469 24.3184 101.46 25.1284 98.4328C25.9385 95.406 24.6991 92.3701 22.273 91.6164L24.406 83.6458C26.8832 84.2069 29.4721 82.1986 30.2821 79.1718C31.092 76.1455 29.8529 73.1096 27.4274 72.3555L29.5605 64.3844C32.038 64.9463 34.628 62.9376 35.438 59.9108C36.248 56.8836 35.0086 53.8477 32.5824 53.094L34.715 45.123C37.1932 45.6864 39.7837 43.6773 40.5939 40.6497C41.4042 37.6219 40.1639 34.5851 37.7364 33.8325L39.8692 25.8627C42.3467 26.4238 44.9352 24.415 45.7452 21.3886C46.5552 18.362 45.3163 15.3264 42.8907 14.5723L45.024 6.60131C47.5019 7.16316 50.0912 5.15435 50.9012 2.12743Z" stroke="black" stroke-opacity="0.3" stroke-width="0.3"/>
<path d="M282.688 146.575V56.8431H250.576L231.9 106.35L213.09 56.8431H180.978V146.575H204.088V87.247L226.794 146.575H237.006L259.578 87.247V146.575H282.688ZM304.582 75.8119C311.166 75.8119 316.54 70.4307 316.54 63.8387C316.54 57.2467 311.166 52 304.582 52C297.998 52 292.758 57.2467 292.758 63.8387C292.758 70.4307 297.998 75.8119 304.582 75.8119ZM314.928 146.575V81.5967H294.236V146.575H314.928ZM390.521 146.575V100.566C390.521 88.5923 383.803 79.9824 369.158 79.9824C358.141 79.9824 350.482 84.96 346.586 89.534V81.5967H325.895V146.575H346.586V104.601C349.004 101.642 353.035 98.2785 359.216 98.2785C365.665 98.2785 369.83 101.104 369.83 109.041V146.575H390.521ZM426.094 148.189C433.753 148.189 438.858 146.306 441.411 143.884L437.38 128.279C436.709 129.086 434.424 129.893 432.14 129.893C428.647 129.893 426.497 127.068 426.497 123.301V99.4893H439.664V81.5967H426.497V63.8387H405.808V81.5967H395.059V99.4893H405.808V129.086C405.808 141.597 412.929 148.189 426.094 148.189ZM456.241 75.8119C462.825 75.8119 468.199 70.4307 468.199 63.8387C468.199 57.2467 462.825 52 456.241 52C449.657 52 444.417 57.2467 444.417 63.8387C444.417 70.4307 449.657 75.8119 456.241 75.8119ZM466.587 146.575V81.5967H445.895V146.575H466.587ZM508.725 148.189C522.833 148.189 531.432 141.866 535.328 136.216L521.892 123.57C519.339 127.203 515.174 129.893 509.665 129.893C501.067 129.893 494.483 123.839 494.483 114.019C494.483 104.198 501.067 98.2785 509.665 98.2785C515.174 98.2785 519.339 100.7 521.892 104.467L535.328 91.9556C531.432 86.1708 522.833 79.9824 508.725 79.9824C488.437 79.9824 473.389 93.7045 473.389 114.019C473.389 134.333 488.437 148.189 508.725 148.189ZM607.344 146.575L582.219 111.193L606.135 81.5967H581.145L561.394 107.561V56.8431H540.702V146.575H561.394V130.969L567.574 123.57L581.816 146.575H607.344ZM634.603 148.189C642.261 148.189 647.367 146.306 649.919 143.884L645.889 128.279C645.217 129.086 642.933 129.893 640.649 129.893C637.155 129.893 635.006 127.068 635.006 123.301V99.4893H648.173V81.5967H635.006V63.8387H614.314V81.5967H603.566V99.4893H614.314V129.086C614.314 141.597 621.435 148.189 634.603 148.189Z" fill="white"/>
<defs>
<linearGradient id="paint0_linear_55_120" x1="77.8264" y1="84.3915" x2="108.164" y2="214.397" gradientUnits="userSpaceOnUse">
<stop stop-color="white"/>
<stop offset="1" stop-color="#BCBCBC"/>
</linearGradient>
</defs>
</svg>
