<svg width="88" height="49" viewBox="0 0 88 49" fill="none" xmlns="http://www.w3.org/2000/svg">
<path fill-rule="evenodd" clip-rule="evenodd" d="M10.4857 1.38004C11.0678 1.53646 11.6987 1.06758 11.895 0.332767C11.9152 0.257224 11.93 0.181812 11.9397 0.107132L33.4213 5.88026C33.1054 8.08238 34.1267 10.1103 35.8877 10.5835C36.0062 10.6153 36.1254 10.6394 36.2449 10.656L35.7059 12.6737H35.7057C35.1237 12.5173 34.4927 12.9861 34.2964 13.7209C34.1002 14.4558 34.4128 15.1782 34.9948 15.3347H34.995L34.4617 17.3305L34.4613 17.3304C33.8792 17.174 33.2483 17.6429 33.052 18.3777C32.8557 19.1125 33.1683 19.835 33.7504 19.9914L33.7508 19.9916L33.2178 21.9871C32.6358 21.8308 32.005 22.2997 31.8087 23.0344C31.6124 23.7691 31.925 24.4916 32.5069 24.6481L31.9736 26.6439H31.9735C31.3915 26.4875 30.7606 26.9564 30.5643 27.6912C30.3679 28.426 30.6806 29.1485 31.2626 29.3049H31.2627L30.7296 31.3007C30.1476 31.1442 29.5167 31.6131 29.3204 32.3479C29.1241 33.0828 29.4367 33.8052 30.0187 33.9616L29.4856 35.9573C28.9037 35.8011 28.2728 36.2699 28.0765 37.0047C27.8802 37.7394 28.1929 38.4617 28.7747 38.6184L28.2415 40.6142C28.2414 40.6142 28.2414 40.6141 28.2414 40.6141C27.6593 40.4577 27.0284 40.9265 26.8321 41.6614C26.6358 42.3962 26.9485 43.1188 27.5305 43.2751C27.5305 43.2752 27.5306 43.2752 27.5306 43.2752L26.9975 45.2708C25.2365 44.7977 23.3411 46.0417 22.5169 48.1071L0.698533 42.2434C0.894838 41.5086 0.582159 40.7862 0.000142883 40.6298L0 40.6297L0.533159 38.634C1.11516 38.7903 1.74609 38.3215 1.94239 37.5867C2.1387 36.8519 1.82604 36.1295 1.24405 35.973L1.77724 33.9772H1.77756C2.35957 34.1336 2.99052 33.6648 3.18683 32.93C3.38314 32.1951 3.07046 31.4726 2.48844 31.3162L2.48814 31.3161L3.02129 29.3205H3.02142C3.60344 29.4769 4.23439 29.008 4.4307 28.2733C4.62701 27.5384 4.31433 26.8159 3.73231 26.6595H3.73218L4.26534 24.6638C4.84733 24.8202 5.47826 24.3513 5.67457 23.6164C5.87087 22.8817 5.55821 22.1592 4.97623 22.0028L5.50938 20.007C6.09134 20.1633 6.72215 19.6945 6.91844 18.9597C7.11471 18.2251 6.80214 17.5026 6.22027 17.3461L6.75347 15.3502H6.75359C7.3356 15.5067 7.96656 15.0378 8.16287 14.303C8.35917 13.5681 8.0465 12.8457 7.46449 12.6892H7.46437L7.99755 10.6934L7.99803 10.6935C8.58004 10.8499 9.21099 10.3811 9.4073 9.64626C9.60361 8.91144 9.29093 8.18896 8.70892 8.03255L8.70844 8.03242L9.24156 6.03685C9.82356 6.19309 10.4543 5.72422 10.6506 4.98952C10.8469 4.2548 10.5344 3.53241 9.95246 3.37586L10.4856 1.38001L10.4857 1.38004Z" fill="url(#paint0_linear_3505_4030)"/>
<path d="M57.1221 16.1588C56.557 16.1588 56.0557 16.0175 55.6182 15.7349C55.1852 15.4478 54.8617 15.0582 54.6475 14.566H54.5654V16.0357H53.6631V5.7408H54.5654V10.109H54.6475C54.8525 9.635 55.1761 9.25675 55.6182 8.9742C56.0648 8.69165 56.5661 8.55037 57.1221 8.55037C57.7419 8.55037 58.2842 8.7076 58.749 9.02205C59.2139 9.3365 59.5739 9.77856 59.8291 10.3482C60.0889 10.9133 60.2188 11.5787 60.2188 12.3443V12.358C60.2188 13.1145 60.0889 13.7799 59.8291 14.3541C59.5739 14.9237 59.2139 15.3681 58.749 15.6871C58.2842 16.0015 57.7419 16.1588 57.1221 16.1588ZM56.9375 15.359C57.4206 15.359 57.8376 15.2359 58.1885 14.9898C58.5439 14.7437 58.8174 14.3951 59.0088 13.9439C59.2002 13.4928 59.2959 12.9618 59.2959 12.3512V12.3375C59.2959 11.7268 59.2002 11.1982 59.0088 10.7515C58.8174 10.3049 58.5439 9.96085 58.1885 9.71931C57.8376 9.47322 57.4206 9.35017 56.9375 9.35017C56.4499 9.35017 56.026 9.47322 55.666 9.71931C55.3105 9.96541 55.0348 10.3118 54.8389 10.7584C54.6429 11.205 54.5449 11.7336 54.5449 12.3443V12.358C54.5449 12.9595 54.6429 13.4859 54.8389 13.9371C55.0348 14.3883 55.3128 14.7392 55.6729 14.9898C56.0329 15.2359 56.4544 15.359 56.9375 15.359ZM65.1201 16.1588C64.432 16.1588 63.8372 16.0038 63.3359 15.6939C62.8392 15.384 62.4564 14.9465 62.1875 14.3814C61.9186 13.8163 61.7842 13.1487 61.7842 12.3785V12.3648C61.7842 11.5992 61.9186 10.9316 62.1875 10.3619C62.4564 9.78767 62.8346 9.34334 63.3223 9.02888C63.8145 8.70987 64.3887 8.55037 65.0449 8.55037C65.7057 8.55037 66.2731 8.70532 66.7471 9.01521C67.2256 9.32055 67.5924 9.74894 67.8477 10.3004C68.1074 10.8472 68.2373 11.483 68.2373 12.2076V12.5904H62.249V11.8521H67.7793L67.335 12.5152V12.1734C67.335 11.5582 67.237 11.0432 67.041 10.6285C66.8496 10.2092 66.5807 9.89249 66.2344 9.6783C65.8926 9.46411 65.4961 9.35701 65.0449 9.35701C64.5892 9.35701 64.1859 9.46638 63.835 9.68513C63.484 9.90388 63.2061 10.2252 63.001 10.649C62.8005 11.0683 62.7002 11.5764 62.7002 12.1734V12.5152C62.7002 13.1031 62.8005 13.609 63.001 14.0328C63.2015 14.4566 63.484 14.7825 63.8486 15.0103C64.2132 15.2382 64.6439 15.3521 65.1406 15.3521C65.4961 15.3521 65.8128 15.302 66.0908 15.2017C66.3734 15.1015 66.6081 14.9693 66.7949 14.8053C66.9818 14.6366 67.1162 14.4589 67.1982 14.272L67.2188 14.2174H68.1279L68.1074 14.272C68.0345 14.5227 67.9137 14.762 67.7451 14.9898C67.5811 15.2131 67.3714 15.4137 67.1162 15.5914C66.861 15.7646 66.5648 15.9036 66.2275 16.0084C65.8949 16.1086 65.5257 16.1588 65.1201 16.1588ZM72.6055 16.0836C71.9082 16.0836 71.4023 15.9377 71.0879 15.6461C70.778 15.3544 70.623 14.8736 70.623 14.2037V9.42537H69.4404V8.67342H70.623V6.75935H71.5527V8.67342H73.2412V9.42537H71.5527V13.9986C71.5527 14.4543 71.6416 14.7825 71.8193 14.983C71.9971 15.1835 72.2933 15.2838 72.708 15.2838C72.8128 15.2838 72.904 15.2815 72.9814 15.2769C73.0589 15.2724 73.1455 15.2655 73.2412 15.2564V16.0289C73.1364 16.0426 73.0316 16.0539 72.9268 16.0631C72.8265 16.0767 72.7194 16.0836 72.6055 16.0836ZM77.0488 16.1588C76.5749 16.1588 76.1533 16.0722 75.7842 15.899C75.415 15.7213 75.1234 15.4706 74.9092 15.147C74.695 14.8235 74.5879 14.4429 74.5879 14.0054V13.9918C74.5879 13.3538 74.8158 12.8525 75.2715 12.4879C75.7318 12.1233 76.388 11.9114 77.2402 11.8521L79.9883 11.6744V12.4058L77.3633 12.5836C76.7344 12.6246 76.2673 12.7636 75.9619 13.0006C75.6611 13.233 75.5107 13.5588 75.5107 13.9781V13.9918C75.5107 14.4156 75.6702 14.7528 75.9893 15.0035C76.3083 15.2496 76.7184 15.3726 77.2197 15.3726C77.6618 15.3726 78.056 15.2815 78.4023 15.0992C78.7533 14.9123 79.0312 14.6617 79.2363 14.3472C79.4414 14.0328 79.5439 13.6819 79.5439 13.2945V11.0113C79.5439 10.469 79.3844 10.0566 79.0654 9.774C78.7464 9.49145 78.2884 9.35017 77.6914 9.35017C77.1901 9.35017 76.7731 9.44816 76.4404 9.64412C76.1077 9.84008 75.8913 10.1226 75.791 10.4918L75.7842 10.5054H74.8818L74.8887 10.4781C74.9525 10.0816 75.112 9.73982 75.3672 9.45271C75.6224 9.1656 75.9505 8.94457 76.3516 8.78963C76.7526 8.63012 77.2083 8.55037 77.7188 8.55037C78.2975 8.55037 78.7897 8.64835 79.1953 8.84431C79.6009 9.03572 79.9085 9.31372 80.1182 9.6783C80.3324 10.0429 80.4395 10.4849 80.4395 11.0045V16.0357H79.5439V14.7642H79.4551C79.3092 15.0559 79.1178 15.3066 78.8809 15.5162C78.6439 15.7213 78.3704 15.8808 78.0605 15.9947C77.7507 16.1041 77.4134 16.1588 77.0488 16.1588Z" fill="white"/>
<rect x="46.25" y="0.285721" width="41.5" height="22.5" rx="5.75" stroke="white" stroke-width="0.5"/>
<defs>
<linearGradient id="paint0_linear_3505_4030" x1="18.4286" y1="20.2311" x2="25.2747" y2="61.9549" gradientUnits="userSpaceOnUse">
<stop stop-color="white"/>
<stop offset="1" stop-color="#6D6D6D"/>
</linearGradient>
</defs>
</svg>
