<svg width="242" height="60" viewBox="0 0 242 60" fill="none" xmlns="http://www.w3.org/2000/svg">
<path d="M211.122 16.123C210.557 16.123 210.056 15.9818 209.618 15.6992C209.185 15.4121 208.862 15.0225 208.647 14.5303H208.565V16H207.663V5.70508H208.565V10.0732H208.647C208.853 9.59928 209.176 9.22103 209.618 8.93848C210.065 8.65592 210.566 8.51465 211.122 8.51465C211.742 8.51465 212.284 8.67188 212.749 8.98633C213.214 9.30078 213.574 9.74284 213.829 10.3125C214.089 10.8776 214.219 11.543 214.219 12.3086V12.3223C214.219 13.0788 214.089 13.7441 213.829 14.3184C213.574 14.888 213.214 15.3324 212.749 15.6514C212.284 15.9658 211.742 16.123 211.122 16.123ZM210.938 15.3232C211.421 15.3232 211.838 15.2002 212.188 14.9541C212.544 14.708 212.817 14.3594 213.009 13.9082C213.2 13.457 213.296 12.9261 213.296 12.3154V12.3018C213.296 11.6911 213.2 11.1624 213.009 10.7158C212.817 10.2692 212.544 9.92513 212.188 9.68359C211.838 9.4375 211.421 9.31445 210.938 9.31445C210.45 9.31445 210.026 9.4375 209.666 9.68359C209.311 9.92969 209.035 10.276 208.839 10.7227C208.643 11.1693 208.545 11.6979 208.545 12.3086V12.3223C208.545 12.9238 208.643 13.4502 208.839 13.9014C209.035 14.3525 209.313 14.7035 209.673 14.9541C210.033 15.2002 210.454 15.3232 210.938 15.3232ZM219.12 16.123C218.432 16.123 217.837 15.9681 217.336 15.6582C216.839 15.3483 216.456 14.9108 216.188 14.3457C215.919 13.7806 215.784 13.113 215.784 12.3428V12.3291C215.784 11.5635 215.919 10.8958 216.188 10.3262C216.456 9.75195 216.835 9.30762 217.322 8.99316C217.814 8.67415 218.389 8.51465 219.045 8.51465C219.706 8.51465 220.273 8.6696 220.747 8.97949C221.226 9.28483 221.592 9.71322 221.848 10.2646C222.107 10.8115 222.237 11.4473 222.237 12.1719V12.5547H216.249V11.8164H221.779L221.335 12.4795V12.1377C221.335 11.5225 221.237 11.0075 221.041 10.5928C220.85 10.1735 220.581 9.85677 220.234 9.64258C219.893 9.42839 219.496 9.32129 219.045 9.32129C218.589 9.32129 218.186 9.43066 217.835 9.64941C217.484 9.86816 217.206 10.1895 217.001 10.6133C216.8 11.0326 216.7 11.5407 216.7 12.1377V12.4795C216.7 13.0674 216.8 13.5732 217.001 13.9971C217.201 14.4209 217.484 14.7467 217.849 14.9746C218.213 15.2025 218.644 15.3164 219.141 15.3164C219.496 15.3164 219.813 15.2663 220.091 15.166C220.373 15.0658 220.608 14.9336 220.795 14.7695C220.982 14.6009 221.116 14.4232 221.198 14.2363L221.219 14.1816H222.128L222.107 14.2363C222.035 14.487 221.914 14.7262 221.745 14.9541C221.581 15.1774 221.371 15.3779 221.116 15.5557C220.861 15.7288 220.565 15.8678 220.228 15.9727C219.895 16.0729 219.526 16.123 219.12 16.123ZM226.605 16.0479C225.908 16.0479 225.402 15.902 225.088 15.6104C224.778 15.3187 224.623 14.8379 224.623 14.168V9.38965H223.44V8.6377H224.623V6.72363H225.553V8.6377H227.241V9.38965H225.553V13.9629C225.553 14.4186 225.642 14.7467 225.819 14.9473C225.997 15.1478 226.293 15.248 226.708 15.248C226.813 15.248 226.904 15.2458 226.981 15.2412C227.059 15.2367 227.146 15.2298 227.241 15.2207V15.9932C227.136 16.0068 227.032 16.0182 226.927 16.0273C226.826 16.041 226.719 16.0479 226.605 16.0479ZM231.049 16.123C230.575 16.123 230.153 16.0365 229.784 15.8633C229.415 15.6855 229.123 15.4349 228.909 15.1113C228.695 14.7878 228.588 14.4072 228.588 13.9697V13.9561C228.588 13.318 228.816 12.8167 229.271 12.4521C229.732 12.0876 230.388 11.8757 231.24 11.8164L233.988 11.6387V12.3701L231.363 12.5479C230.734 12.5889 230.267 12.7279 229.962 12.9648C229.661 13.1973 229.511 13.5231 229.511 13.9424V13.9561C229.511 14.3799 229.67 14.7171 229.989 14.9678C230.308 15.2139 230.718 15.3369 231.22 15.3369C231.662 15.3369 232.056 15.2458 232.402 15.0635C232.753 14.8766 233.031 14.626 233.236 14.3115C233.441 13.9971 233.544 13.6462 233.544 13.2588V10.9756C233.544 10.4333 233.384 10.0208 233.065 9.73828C232.746 9.45573 232.288 9.31445 231.691 9.31445C231.19 9.31445 230.773 9.41243 230.44 9.6084C230.108 9.80436 229.891 10.0869 229.791 10.4561L229.784 10.4697H228.882L228.889 10.4424C228.952 10.0459 229.112 9.7041 229.367 9.41699C229.622 9.12988 229.951 8.90885 230.352 8.75391C230.753 8.5944 231.208 8.51465 231.719 8.51465C232.298 8.51465 232.79 8.61263 233.195 8.80859C233.601 9 233.909 9.27799 234.118 9.64258C234.332 10.0072 234.439 10.4492 234.439 10.9688V16H233.544V14.7285H233.455C233.309 15.0202 233.118 15.2708 232.881 15.4805C232.644 15.6855 232.37 15.8451 232.061 15.959C231.751 16.0684 231.413 16.123 231.049 16.123Z" fill="white"/>
<rect x="200.25" y="0.25" width="41.5" height="22.5" rx="5.75" stroke="white" stroke-width="0.5"/>
<path fill-rule="evenodd" clip-rule="evenodd" d="M13.2865 1.86998C13.9999 2.05841 14.7732 1.49355 15.0138 0.608311C15.0385 0.517305 15.0566 0.426455 15.0685 0.336487L41.3957 7.29144C41.0086 9.94436 42.2602 12.3874 44.4184 12.9575C44.5637 12.9959 44.7098 13.0249 44.8562 13.0448L44.1956 15.4756H44.1954C43.4821 15.2871 42.7088 15.852 42.4683 16.7372C42.2277 17.6225 42.6108 18.4928 43.3241 18.6813H43.3244L42.6708 21.0857L42.6703 21.0856C41.9569 20.8971 41.1837 21.462 40.9431 22.3473C40.7025 23.2325 41.0857 24.1028 41.7991 24.2913L41.7996 24.2915L41.1463 26.6956C40.433 26.5072 39.6599 27.0721 39.4193 27.9573C39.1787 28.8423 39.5619 29.7127 40.275 29.9013L39.6215 32.3057H39.6214C38.9081 32.1172 38.1348 32.6821 37.8943 33.5673C37.6536 34.4526 38.0369 35.323 38.7501 35.5114H38.7502L38.0968 37.9157C37.3836 37.7272 36.6103 38.2921 36.3697 39.1773C36.1292 40.0626 36.5123 40.933 37.2256 41.1214L36.5722 43.5256C35.859 43.3374 35.0859 43.9022 34.8453 44.7874C34.6047 45.6725 34.9879 46.5427 35.7009 46.7314L35.0475 49.1358C35.0474 49.1358 35.0474 49.1357 35.0474 49.1357C34.334 48.9472 33.5607 49.5121 33.3202 50.3974C33.0796 51.2826 33.4629 52.1531 34.1761 52.3414C34.1761 52.3415 34.1763 52.3415 34.1763 52.3415L33.5228 54.7457C31.3646 54.1757 29.0418 55.6743 28.0317 58.1626L1.29165 51.0985C1.53224 50.2134 1.14903 49.343 0.435728 49.1545L0.435553 49.1544L1.08898 46.7503C1.80226 46.9386 2.57551 46.3737 2.81609 45.4885C3.05668 44.6034 2.67349 43.733 1.96023 43.5445L2.61369 41.1401H2.61407C3.32737 41.3286 4.10064 40.7637 4.34124 39.8785C4.58183 38.9932 4.19861 38.1229 3.48531 37.9344L3.48494 37.9343L4.13835 35.5301H4.13851C4.85182 35.7186 5.6251 35.1537 5.86568 34.2685C6.10628 33.3832 5.72306 32.5129 5.00977 32.3244H5.00961L5.66303 29.9201C6.3763 30.1086 7.14955 29.5437 7.39013 28.6584C7.63072 27.7732 7.24753 26.9029 6.53427 26.7144L7.18769 24.3101C7.90091 24.4983 8.67403 23.9336 8.91459 23.0484C9.15514 22.1634 8.77206 21.293 8.05893 21.1044L8.7124 18.7H8.71255C9.42585 18.8885 10.1991 18.3236 10.4397 17.4384C10.6803 16.5531 10.2971 15.6827 9.58381 15.4943H9.58366L10.2371 13.0899L10.2377 13.09C10.951 13.2785 11.7243 12.7136 11.9649 11.8284C12.2055 10.9431 11.8222 10.0728 11.1089 9.88432L11.1084 9.88417L11.7617 7.48009C12.475 7.6683 13.248 7.10346 13.4886 6.21835C13.7292 5.33323 13.3461 4.46296 12.633 4.27436L13.2864 1.86994L13.2865 1.86998Z" fill="url(#paint0_linear_3503_4025)"/>
<path d="M83.6195 40.6641V14.5286H74.1208L68.5964 28.9482L63.0323 14.5286H53.5336V40.6641H60.3695V23.3841L67.0862 40.6641H70.1067L76.7836 23.3841V40.6641H83.6195ZM90.0959 20.0535C92.0433 20.0535 93.633 18.4861 93.633 16.5661C93.633 14.6461 92.0433 13.118 90.0959 13.118C88.1484 13.118 86.5984 14.6461 86.5984 16.5661C86.5984 18.4861 88.1484 20.0535 90.0959 20.0535ZM93.1561 40.6641V21.7384H87.0356V40.6641H93.1561ZM115.517 40.6641V27.2633C115.517 23.7759 113.53 21.2682 109.198 21.2682C105.939 21.2682 103.673 22.718 102.521 24.0502V21.7384H96.4002V40.6641H102.521V28.4388C103.236 27.5767 104.428 26.5971 106.257 26.5971C108.164 26.5971 109.396 27.42 109.396 29.7318V40.6641H115.517ZM126.039 41.1343C128.305 41.1343 129.815 40.5857 130.57 39.8804L129.378 35.3351C129.179 35.5702 128.503 35.8053 127.828 35.8053C126.794 35.8053 126.159 34.9824 126.159 33.8853V26.9498H130.053V21.7384H126.159V16.5661H120.039V21.7384H116.859V26.9498H120.039V35.5702C120.039 39.2143 122.145 41.1343 126.039 41.1343ZM134.957 20.0535C136.904 20.0535 138.494 18.4861 138.494 16.5661C138.494 14.6461 136.904 13.118 134.957 13.118C133.009 13.118 131.459 14.6461 131.459 16.5661C131.459 18.4861 133.009 20.0535 134.957 20.0535ZM138.017 40.6641V21.7384H131.897V40.6641H138.017ZM150.482 41.1343C154.655 41.1343 157.198 39.2926 158.351 37.6469L154.377 33.9637C153.621 35.0216 152.389 35.8053 150.76 35.8053C148.216 35.8053 146.269 34.042 146.269 31.1816C146.269 28.3212 148.216 26.5971 150.76 26.5971C152.389 26.5971 153.621 27.3024 154.377 28.3996L158.351 24.7555C157.198 23.0706 154.655 21.2682 150.482 21.2682C144.48 21.2682 140.029 25.2649 140.029 31.1816C140.029 37.0984 144.48 41.1343 150.482 41.1343ZM179.653 40.6641L172.221 30.3588L179.296 21.7384H171.903L166.061 29.3008V14.5286H159.941V40.6641H166.061V36.1188L167.889 33.9637L172.102 40.6641H179.653ZM187.716 41.1343C189.982 41.1343 191.492 40.5857 192.247 39.8804L191.055 35.3351C190.856 35.5702 190.181 35.8053 189.505 35.8053C188.472 35.8053 187.836 34.9824 187.836 33.8853V26.9498H191.731V21.7384H187.836V16.5661H181.715V21.7384H178.536V26.9498H181.715V35.5702C181.715 39.2143 183.822 41.1343 187.716 41.1343Z" fill="white"/>
<defs>
<linearGradient id="paint0_linear_3503_4025" x1="23.0211" y1="24.58" x2="31.1355" y2="74.8897" gradientUnits="userSpaceOnUse">
<stop stop-color="white"/>
<stop offset="1" stop-color="#6D6D6D"/>
</linearGradient>
</defs>
</svg>
