<svg width="17" height="18" viewBox="0 0 17 18" fill="none" xmlns="http://www.w3.org/2000/svg">
<path d="M13.6449 1.36299L10.0914 6.63889C10.0408 6.71487 10.0194 6.80661 10.0312 6.89713C10.043 6.98766 10.0872 7.07086 10.1556 7.13133C10.224 7.1918 10.3119 7.22546 10.4032 7.22609C10.4945 7.22671 10.5829 7.19425 10.6522 7.13472L14.1501 4.10069C14.1706 4.08235 14.196 4.07038 14.2232 4.06623C14.2504 4.06208 14.2782 4.06594 14.3033 4.07733C14.3283 4.08872 14.3495 4.10716 14.3642 4.13038C14.379 4.15361 14.3866 4.18062 14.3862 4.20813V13.7069C14.3862 13.736 14.3773 13.7643 14.3606 13.7881C14.3439 13.812 14.3203 13.83 14.2929 13.84C14.2656 13.8499 14.2359 13.8512 14.2078 13.8436C14.1797 13.8361 14.1546 13.8201 14.136 13.7978L3.56292 1.14104C3.39285 0.940223 3.18109 0.778853 2.94236 0.66815C2.70362 0.557447 2.44364 0.500067 2.18049 0.5H1.81097C1.33067 0.5 0.870044 0.690798 0.530421 1.03042C0.190798 1.37004 0 1.83067 0 2.31097V15.689C0 16.1693 0.190798 16.63 0.530421 16.9696C0.870044 17.3092 1.33067 17.5 1.81097 17.5C2.12065 17.5001 2.42518 17.4208 2.69551 17.2697C2.96584 17.1186 3.19294 16.9008 3.35514 16.637L6.90861 11.3611C6.95922 11.2851 6.98061 11.1934 6.96881 11.1029C6.95701 11.0123 6.91283 10.9291 6.84444 10.8687C6.77605 10.8082 6.68807 10.7745 6.59678 10.7739C6.50549 10.7733 6.41706 10.8057 6.34785 10.8653L2.84986 13.8993C2.82936 13.9176 2.80397 13.9296 2.77677 13.9338C2.74958 13.9379 2.72177 13.9341 2.69673 13.9227C2.6717 13.9113 2.65052 13.8928 2.63578 13.8696C2.62105 13.8464 2.61339 13.8194 2.61375 13.7919V4.29076C2.61376 4.26168 2.62272 4.23331 2.63941 4.2095C2.6561 4.18569 2.67972 4.16759 2.70705 4.15766C2.73439 4.14773 2.76411 4.14646 2.7922 4.15401C2.82028 4.16156 2.84536 4.17757 2.86403 4.19986L13.4359 16.859C13.606 17.0598 13.8177 17.2211 14.0565 17.3319C14.2952 17.4426 14.5552 17.4999 14.8183 17.5H15.1878C15.4258 17.5002 15.6614 17.4534 15.8812 17.3625C16.1011 17.2715 16.3009 17.1382 16.4692 16.97C16.6374 16.8018 16.771 16.6021 16.862 16.3823C16.9531 16.1625 17 15.9269 17 15.689V2.31097C17 1.83067 16.8092 1.37004 16.4696 1.03042C16.13 0.690798 15.6693 0.5 15.189 0.5C14.8793 0.499919 14.5748 0.5792 14.3045 0.730276C14.0342 0.881353 13.8071 1.09919 13.6449 1.36299Z" fill="url(#paint0_linear_996_6226)"/>
<path d="M13.6449 1.36299L10.0914 6.63889C10.0408 6.71487 10.0194 6.80661 10.0312 6.89713C10.043 6.98766 10.0872 7.07086 10.1556 7.13133C10.224 7.1918 10.3119 7.22546 10.4032 7.22609C10.4945 7.22671 10.5829 7.19425 10.6522 7.13472L14.1501 4.10069C14.1706 4.08235 14.196 4.07038 14.2232 4.06623C14.2504 4.06208 14.2782 4.06594 14.3033 4.07733C14.3283 4.08872 14.3495 4.10716 14.3642 4.13038C14.379 4.15361 14.3866 4.18062 14.3862 4.20813V13.7069C14.3862 13.736 14.3773 13.7643 14.3606 13.7881C14.3439 13.812 14.3203 13.83 14.2929 13.84C14.2656 13.8499 14.2359 13.8512 14.2078 13.8436C14.1797 13.8361 14.1546 13.8201 14.136 13.7978L3.56292 1.14104C3.39285 0.940223 3.18109 0.778853 2.94236 0.66815C2.70362 0.557447 2.44364 0.500067 2.18049 0.5H1.81097C1.33067 0.5 0.870044 0.690798 0.530421 1.03042C0.190798 1.37004 0 1.83067 0 2.31097V15.689C0 16.1693 0.190798 16.63 0.530421 16.9696C0.870044 17.3092 1.33067 17.5 1.81097 17.5C2.12065 17.5001 2.42518 17.4208 2.69551 17.2697C2.96584 17.1186 3.19294 16.9008 3.35514 16.637L6.90861 11.3611C6.95922 11.2851 6.98061 11.1934 6.96881 11.1029C6.95701 11.0123 6.91283 10.9291 6.84444 10.8687C6.77605 10.8082 6.68807 10.7745 6.59678 10.7739C6.50549 10.7733 6.41706 10.8057 6.34785 10.8653L2.84986 13.8993C2.82936 13.9176 2.80397 13.9296 2.77677 13.9338C2.74958 13.9379 2.72177 13.9341 2.69673 13.9227C2.6717 13.9113 2.65052 13.8928 2.63578 13.8696C2.62105 13.8464 2.61339 13.8194 2.61375 13.7919V4.29076C2.61376 4.26168 2.62272 4.23331 2.63941 4.2095C2.6561 4.18569 2.67972 4.16759 2.70705 4.15766C2.73439 4.14773 2.76411 4.14646 2.7922 4.15401C2.82028 4.16156 2.84536 4.17757 2.86403 4.19986L13.4359 16.859C13.606 17.0598 13.8177 17.2211 14.0565 17.3319C14.2952 17.4426 14.5552 17.4999 14.8183 17.5H15.1878C15.4258 17.5002 15.6614 17.4534 15.8812 17.3625C16.1011 17.2715 16.3009 17.1382 16.4692 16.97C16.6374 16.8018 16.771 16.6021 16.862 16.3823C16.9531 16.1625 17 15.9269 17 15.689V2.31097C17 1.83067 16.8092 1.37004 16.4696 1.03042C16.13 0.690798 15.6693 0.5 15.189 0.5C14.8793 0.499919 14.5748 0.5792 14.3045 0.730276C14.0342 0.881353 13.8071 1.09919 13.6449 1.36299Z" fill="black"/>
<defs>
<linearGradient id="paint0_linear_996_6226" x1="8.5" y1="1.90007" x2="8.5" y2="17.5" gradientUnits="userSpaceOnUse">
<stop/>
<stop offset="1" stop-color="#FF00E5" stop-opacity="0.56"/>
</linearGradient>
</defs>
</svg>
