<svg width="13" height="14" viewBox="0 0 13 14" fill="none" xmlns="http://www.w3.org/2000/svg">
<path id="Vector" d="M10.4343 1.15993L7.71694 5.19444C7.67824 5.25255 7.66189 5.3227 7.67091 5.39193C7.67993 5.46115 7.71372 5.52477 7.76602 5.57102C7.81832 5.61726 7.88559 5.643 7.9554 5.64348C8.02521 5.64396 8.09284 5.61914 8.14576 5.57361L10.8207 3.25347C10.8364 3.23945 10.8558 3.23029 10.8766 3.22712C10.8974 3.22394 10.9186 3.22689 10.9378 3.2356C10.9569 3.24432 10.9731 3.25841 10.9844 3.27617C10.9957 3.29394 11.0015 3.31459 11.0012 3.33563V10.5994C11.0012 10.6216 10.9944 10.6433 10.9816 10.6615C10.9689 10.6797 10.9508 10.6936 10.9299 10.7012C10.909 10.7088 10.8863 10.7097 10.8648 10.704C10.8433 10.6982 10.8241 10.6859 10.8099 10.6689L2.72458 0.990208C2.59453 0.836641 2.4326 0.713241 2.25004 0.628586C2.06748 0.54393 1.86867 0.500052 1.66743 0.5H1.38486C1.01757 0.5 0.665328 0.645905 0.405616 0.905616C0.145905 1.16533 0 1.51757 0 1.88486V12.1151C0 12.4824 0.145905 12.8347 0.405616 13.0944C0.665328 13.3541 1.01757 13.5 1.38486 13.5V13.5C1.62167 13.5001 1.85455 13.4394 2.06127 13.3239C2.26799 13.2084 2.44166 13.0418 2.56569 12.8401L5.28306 8.80556C5.32176 8.74745 5.33811 8.6773 5.32909 8.60807C5.32007 8.53885 5.28628 8.47523 5.23398 8.42898C5.18168 8.38274 5.11441 8.357 5.0446 8.35652C4.97478 8.35604 4.90716 8.38086 4.85424 8.42639L2.17931 10.7465C2.16363 10.7606 2.14421 10.7697 2.12341 10.7729C2.10262 10.7761 2.08135 10.7731 2.06221 10.7644C2.04306 10.7557 2.02687 10.7416 2.0156 10.7238C2.00433 10.7061 1.99848 10.6854 1.99875 10.6644V3.39882C1.99876 3.37658 2.00561 3.35489 2.01837 3.33668C2.03114 3.31847 2.0492 3.30463 2.0701 3.29704C2.091 3.28944 2.11373 3.28847 2.13521 3.29424C2.15668 3.30001 2.17586 3.31226 2.19014 3.32931L10.2745 13.0098C10.4046 13.1634 10.5665 13.2868 10.7491 13.3714C10.9316 13.4561 11.1304 13.4999 11.3317 13.5H11.6142C11.7962 13.5001 11.9764 13.4644 12.1445 13.3948C12.3126 13.3253 12.4654 13.2233 12.5941 13.0947C12.7228 12.9661 12.8248 12.8134 12.8945 12.6453C12.9641 12.4772 13 12.2971 13 12.1151V1.88486C13 1.51757 12.8541 1.16533 12.5944 0.905616C12.3347 0.645905 11.9824 0.5 11.6151 0.5C11.3783 0.499938 11.1454 0.560564 10.9387 0.676094C10.732 0.791623 10.5583 0.9582 10.4343 1.15993V1.15993Z" fill="white"/>
</svg>
