<svg width="16" height="12" viewBox="0 0 16 12" fill="none" xmlns="http://www.w3.org/2000/svg">
<path d="M13.1981 1.22486C12.2421 0.786187 11.2169 0.462987 10.1449 0.277876C10.1254 0.274304 10.1059 0.283233 10.0959 0.301089C9.96401 0.535602 9.81797 0.841541 9.71568 1.08201C8.56275 0.909395 7.41573 0.909395 6.28645 1.08201C6.18416 0.836184 6.0328 0.535602 5.90036 0.301089C5.89031 0.283828 5.8708 0.2749 5.85129 0.277876C4.77995 0.462391 3.75472 0.785591 2.79809 1.22486C2.78981 1.22843 2.78271 1.23438 2.77798 1.24212C0.83337 4.14735 0.300656 6.98115 0.561988 9.77984C0.56317 9.79353 0.570856 9.80662 0.581499 9.81496C1.86451 10.7572 3.10731 11.3292 4.32705 11.7083C4.34656 11.7143 4.36726 11.7071 4.37967 11.6911C4.6682 11.297 4.92539 10.8816 5.14593 10.4447C5.15894 10.4191 5.14652 10.3887 5.11992 10.3786C4.71195 10.2239 4.3235 10.0352 3.94984 9.82091C3.92027 9.80365 3.91791 9.76139 3.94511 9.74115C4.02374 9.68222 4.10238 9.62092 4.17747 9.55902C4.19107 9.54771 4.20999 9.54533 4.22595 9.55247C6.68081 10.6733 9.33847 10.6733 11.7644 9.55247C11.7803 9.54473 11.7992 9.54711 11.8134 9.55842C11.8885 9.62032 11.9672 9.68222 12.0464 9.74115C12.0736 9.76139 12.0718 9.80365 12.0422 9.82091C11.6686 10.0394 11.2801 10.2239 10.8716 10.378C10.845 10.3881 10.8331 10.4191 10.8461 10.4447C11.0714 10.881 11.3286 11.2964 11.6118 11.6905C11.6236 11.7071 11.6449 11.7143 11.6644 11.7083C12.8901 11.3292 14.1329 10.7572 15.4159 9.81496C15.4271 9.80662 15.4342 9.79412 15.4354 9.78043C15.7482 6.54486 14.9116 3.73427 13.2176 1.24271C13.2135 1.23438 13.2064 1.22843 13.1981 1.22486ZM5.5125 8.07575C4.77344 8.07575 4.16446 7.39721 4.16446 6.56391C4.16446 5.73061 4.76162 5.05207 5.5125 5.05207C6.2693 5.05207 6.87237 5.73656 6.86055 6.56391C6.86055 7.39721 6.26339 8.07575 5.5125 8.07575ZM10.4967 8.07575C9.75766 8.07575 9.14868 7.39721 9.14868 6.56391C9.14868 5.73061 9.74584 5.05207 10.4967 5.05207C11.2535 5.05207 11.8566 5.73656 11.8448 6.56391C11.8448 7.39721 11.2535 8.07575 10.4967 8.07575Z" fill="white"/>
</svg>
