<svg width="14" height="14" viewBox="0 0 14 14" fill="none" xmlns="http://www.w3.org/2000/svg">
<path d="M1.85144 6.49431C1.25609 6.26278 0.958413 6.14702 0.871507 5.98022C0.796169 5.83562 0.796068 5.66337 0.871235 5.51868C0.957945 5.35178 1.25548 5.23567 1.85056 5.00344L11.0508 1.4131C11.588 1.20347 11.8566 1.09865 12.0282 1.15599C12.1772 1.20578 12.2942 1.32275 12.344 1.4718C12.4013 1.64343 12.2965 1.91202 12.0869 2.4492L8.49656 11.6494C8.26433 12.2445 8.14822 12.5421 7.98132 12.6288C7.83663 12.7039 7.66438 12.7038 7.51978 12.6285C7.35298 12.5416 7.23722 12.2439 7.00569 11.6486L5.69008 8.26557C5.64308 8.14472 5.61959 8.08429 5.58329 8.03341C5.55112 7.98831 5.51169 7.94888 5.46659 7.91671C5.41571 7.88041 5.35528 7.85692 5.23443 7.80992L1.85144 6.49431Z" stroke="white" stroke-width="1.5" stroke-linecap="round" stroke-linejoin="round"/>
</svg>
