<svg width="25" height="24" viewBox="0 0 25 24" fill="none" xmlns="http://www.w3.org/2000/svg">
<path d="M19.9441 5.32631C18.6057 4.71243 17.1704 4.26013 15.6696 4.00109C15.6423 3.99609 15.615 4.00858 15.6009 4.03357C15.4164 4.36175 15.2119 4.78989 15.0687 5.1264C13.4546 4.88485 11.8488 4.88485 10.2678 5.1264C10.1246 4.78239 9.91267 4.36175 9.72725 4.03357C9.71318 4.00942 9.68587 3.99692 9.65855 4.00109C8.15868 4.2593 6.72336 4.71159 5.38407 5.32631C5.37248 5.33131 5.36255 5.33964 5.35592 5.35047C2.63347 9.4161 1.88767 13.3818 2.25353 17.2983C2.25519 17.3175 2.26595 17.3358 2.28085 17.3475C4.07706 18.666 5.81698 19.4665 7.52462 19.9971C7.55194 20.0054 7.58091 19.9954 7.59829 19.9729C8.00223 19.4215 8.3623 18.8401 8.67105 18.2287C8.68926 18.1929 8.67188 18.1504 8.63463 18.1363C8.06348 17.9197 7.51965 17.6557 6.99652 17.3558C6.95513 17.3316 6.95182 17.2725 6.9899 17.2442C7.09999 17.1617 7.21008 17.0759 7.3152 16.9893C7.33424 16.9735 7.36073 16.9701 7.38308 16.9801C10.8199 18.5486 14.5406 18.5486 17.9368 16.9801C17.9592 16.9693 17.9857 16.9726 18.0055 16.9885C18.1107 17.0751 18.2208 17.1617 18.3317 17.2442C18.3698 17.2725 18.3673 17.3316 18.3259 17.3558C17.8028 17.6615 17.2589 17.9197 16.6869 18.1354C16.6497 18.1496 16.6331 18.1929 16.6514 18.2287C16.9667 18.8393 17.3268 19.4207 17.7233 19.9721C17.7398 19.9954 17.7696 20.0054 17.797 19.9971C19.5129 19.4665 21.2528 18.666 23.049 17.3475C23.0647 17.3358 23.0747 17.3183 23.0763 17.2992C23.5142 12.7712 22.3429 8.83804 19.9714 5.3513C19.9657 5.33964 19.9557 5.33131 19.9441 5.32631ZM9.18425 14.9136C8.14957 14.9136 7.29699 13.964 7.29699 12.7979C7.29699 11.6318 8.13301 10.6822 9.18425 10.6822C10.2438 10.6822 11.0881 11.6401 11.0715 12.7979C11.0715 13.964 10.2355 14.9136 9.18425 14.9136ZM16.1622 14.9136C15.1275 14.9136 14.2749 13.964 14.2749 12.7979C14.2749 11.6318 15.1109 10.6822 16.1622 10.6822C17.2217 10.6822 18.066 11.6401 18.0494 12.7979C18.0494 13.964 17.2217 14.9136 16.1622 14.9136Z" fill="white"/>
</svg>
