<svg xmlns="http://www.w3.org/2000/svg" xmlns:xlink="http://www.w3.org/1999/xlink" viewBox="0,0,256,256" width="64px" height="64px" fill-rule="nonzero"><g fill="#ffffff" fill-rule="nonzero" stroke="none" stroke-width="1" stroke-linecap="butt" stroke-linejoin="miter" stroke-miterlimit="10" stroke-dasharray="" stroke-dashoffset="0" font-family="none" font-weight="none" font-size="none" text-anchor="none" style="mix-blend-mode: normal"><g transform="scale(4,4)"><path d="M32,6c-14.359,0 -26,11.641 -26,26c0,12.999 9.54,23.769 22,25.693v-17.693h-6v-7h6v-5c0,-7 4,-11 10,-11c3.133,0 5,1 5,1v6h-4c-2.86,0 -4,2.093 -4,4v5h7l-1,7h-6v17.822c12.945,-1.488 23,-12.478 23,-25.822c0,-14.359 -11.641,-26 -26,-26z"></path></g></g></svg>