<svg width="25" height="24" viewBox="0 0 25 24" fill="none" xmlns="http://www.w3.org/2000/svg">
<path fill-rule="evenodd" clip-rule="evenodd" d="M16.6667 3H8.66675C5.90533 3 3.66675 5.23858 3.66675 8V16C3.66675 18.7614 5.90533 21 8.66675 21H16.6667C19.4281 21 21.6667 18.7614 21.6667 16V8C21.6667 5.23858 19.4281 3 16.6667 3ZM19.9167 16C19.9112 17.7926 18.4593 19.2445 16.6667 19.25H8.66675C6.8741 19.2445 5.42224 17.7926 5.41675 16V8C5.42224 6.20735 6.8741 4.75549 8.66675 4.75H16.6667C18.4593 4.75549 19.9112 6.20735 19.9167 8V16ZM17.4167 8.25C17.969 8.25 18.4167 7.80228 18.4167 7.25C18.4167 6.69772 17.969 6.25 17.4167 6.25C16.8644 6.25 16.4167 6.69772 16.4167 7.25C16.4167 7.80228 16.8644 8.25 17.4167 8.25ZM12.6667 7.5C10.1815 7.5 8.16675 9.51472 8.16675 12C8.16675 14.4853 10.1815 16.5 12.6667 16.5C15.152 16.5 17.1667 14.4853 17.1667 12C17.1694 10.8057 16.6961 9.65957 15.8516 8.81508C15.0071 7.97059 13.861 7.49734 12.6667 7.5ZM9.91675 12C9.91675 13.5188 11.1479 14.75 12.6667 14.75C14.1855 14.75 15.4167 13.5188 15.4167 12C15.4167 10.4812 14.1855 9.25 12.6667 9.25C11.1479 9.25 9.91675 10.4812 9.91675 12Z" fill="white"/>
</svg>
