<svg width="25" height="24" viewBox="0 0 25 24" fill="none" xmlns="http://www.w3.org/2000/svg">
<path d="M19.8667 3.2002H5.4667C4.5827 3.2002 3.8667 3.9162 3.8667 4.8002V19.2002C3.8667 20.0842 4.5827 20.8002 5.4667 20.8002H19.8667C20.7507 20.8002 21.4667 20.0842 21.4667 19.2002V4.8002C21.4667 3.9162 20.7507 3.2002 19.8667 3.2002ZM9.4299 17.6002H7.0699V10.0066H9.4299V17.6002ZM8.2259 8.921C7.4651 8.921 6.8499 8.3042 6.8499 7.545C6.8499 6.7858 7.4659 6.1698 8.2259 6.1698C8.9843 6.1698 9.6011 6.7866 9.6011 7.545C9.6011 8.3042 8.9843 8.921 8.2259 8.921ZM18.2699 17.6002H15.9115V13.9074C15.9115 13.0266 15.8955 11.8938 14.6851 11.8938C13.4571 11.8938 13.2683 12.853 13.2683 13.8434V17.6002H10.9099V10.0066H13.1739V11.0442H13.2059C13.5211 10.4474 14.2907 9.8178 15.4387 9.8178C17.8283 9.8178 18.2699 11.3906 18.2699 13.4354V17.6002Z" fill="white"/>
</svg>
