<svg width="155" height="48" viewBox="0 0 155 48" fill="none" xmlns="http://www.w3.org/2000/svg">
<path fill-rule="evenodd" clip-rule="evenodd" d="M10.6292 1.49584C11.1999 1.64659 11.8186 1.19469 12.011 0.486503C12.0308 0.413697 12.0453 0.341017 12.0548 0.269043L33.1165 5.83301C32.8068 7.95534 33.8082 9.90977 35.5347 10.3659C35.651 10.3965 35.7678 10.4198 35.885 10.4357L35.3565 12.3803H35.3563C34.7857 12.2295 34.1671 12.6814 33.9746 13.3896C33.7822 14.0978 34.0887 14.7941 34.6593 14.9449H34.6595L34.1367 16.8684L34.1363 16.8683C33.5655 16.7175 32.9469 17.1694 32.7545 17.8777C32.562 18.5858 32.8685 19.2821 33.4393 19.4329L33.4397 19.4331L32.917 21.3563C32.3464 21.2056 31.7279 21.6575 31.5354 22.3657C31.343 23.0737 31.6495 23.77 32.22 23.9209L31.6972 25.8444H31.6971C31.1265 25.6936 30.5079 26.1455 30.3154 26.8537C30.1229 27.5619 30.4295 28.2582 31.0001 28.409H31.0002L30.4775 30.3324C29.9069 30.1816 29.2882 30.6335 29.0958 31.3417C28.9033 32.0499 29.2099 32.7462 29.7805 32.897L29.2577 34.8203C28.6872 34.6697 28.0687 35.1216 27.8763 35.8298C27.6838 36.5378 27.9903 37.234 28.5607 37.385L28.038 39.3085C28.0379 39.3085 28.0379 39.3084 28.0379 39.3084C27.4672 39.1576 26.8486 39.6095 26.6561 40.3178C26.4637 41.0259 26.7703 41.7223 27.3409 41.873C27.3409 41.8731 27.341 41.8731 27.341 41.8731L26.8183 43.7964C25.0917 43.3404 23.2334 44.5393 22.4253 46.53L1.03332 40.8787C1.22579 40.1705 0.919224 39.4742 0.348582 39.3235L0.348442 39.3234L0.871182 37.4001C1.44181 37.5507 2.06041 37.0988 2.25288 36.3907C2.44534 35.6825 2.13879 34.9863 1.56818 34.8355L2.09095 32.912H2.09126C2.6619 33.0627 3.28052 32.6108 3.47299 31.9027C3.66546 31.1944 3.35889 30.4982 2.78825 30.3474L2.78795 30.3473L3.31068 28.424H3.31081C3.88146 28.5747 4.50008 28.1228 4.69255 27.4147C4.88502 26.7064 4.57845 26.0102 4.00781 25.8594H4.00768L4.53042 23.936C5.10104 24.0867 5.71964 23.6348 5.91211 22.9266C6.10458 22.2184 5.79802 21.5222 5.22742 21.3714L5.75015 19.448C6.32073 19.5985 6.93922 19.1467 7.13167 18.4386C7.32411 17.7305 7.01765 17.0343 6.44715 16.8834L6.96992 14.9599H6.97004C7.54068 15.1106 8.15931 14.6587 8.35178 13.9506C8.54425 13.2423 8.23768 12.5461 7.66705 12.3953H7.66693L8.18969 10.4718L8.19016 10.4719C8.7608 10.6226 9.37942 10.1707 9.57189 9.46256C9.76437 8.75437 9.45779 8.05806 8.88715 7.90731L8.88669 7.90719L9.40938 5.98392C9.98001 6.1345 10.5984 5.68262 10.7909 4.97453C10.9833 4.26644 10.6769 3.57022 10.1064 3.41934L10.6291 1.49581L10.6292 1.49584Z" fill="url(#paint0_linear_3138_13476)"/>
<path d="M66.8956 32.531V11.6226H59.2966L54.8771 23.1583L50.4259 11.6226H42.8269V32.531H48.2956V18.707L53.6689 32.531H56.0854L61.4269 18.707V32.531H66.8956ZM72.0767 16.0425C73.6346 16.0425 74.9064 14.7887 74.9064 13.2527C74.9064 11.7167 73.6346 10.4941 72.0767 10.4941C70.5187 10.4941 69.2787 11.7167 69.2787 13.2527C69.2787 14.7887 70.5187 16.0425 72.0767 16.0425ZM74.5249 32.531V17.3905H69.6285V32.531H74.5249ZM92.4135 32.531V21.8104C92.4135 19.0205 90.8237 17.0143 87.3581 17.0143C84.7509 17.0143 82.9386 18.1741 82.0166 19.2399V17.3905H77.1201V32.531H82.0166V22.7508C82.5889 22.0612 83.5427 21.2775 85.0053 21.2775C86.5314 21.2775 87.5171 21.9358 87.5171 23.7852V32.531H92.4135ZM100.831 32.9072C102.644 32.9072 103.852 32.4683 104.456 31.9041L103.502 28.2679C103.343 28.4559 102.803 28.644 102.262 28.644C101.436 28.644 100.927 27.9857 100.927 27.108V21.5596H104.043V17.3905H100.927V13.2527H96.0309V17.3905H93.4874V21.5596H96.0309V28.4559C96.0309 31.3712 97.7161 32.9072 100.831 32.9072ZM107.965 16.0425C109.523 16.0425 110.795 14.7887 110.795 13.2527C110.795 11.7167 109.523 10.4941 107.965 10.4941C106.408 10.4941 105.168 11.7167 105.168 13.2527C105.168 14.7887 106.408 16.0425 107.965 16.0425ZM110.414 32.531V17.3905H105.517V32.531H110.414ZM120.385 32.9072C123.724 32.9072 125.759 31.4339 126.681 30.1173L123.501 27.1707C122.897 28.0171 121.911 28.644 120.608 28.644C118.573 28.644 117.015 27.2334 117.015 24.9451C117.015 22.6568 118.573 21.2775 120.608 21.2775C121.911 21.2775 122.897 21.8417 123.501 22.7194L126.681 19.8042C125.759 18.4563 123.724 17.0143 120.385 17.0143C115.584 17.0143 112.023 20.2117 112.023 24.9451C112.023 29.6785 115.584 32.9072 120.385 32.9072ZM143.723 32.531L137.777 24.2868L143.437 17.3905H137.523L132.849 23.4404V11.6226H127.953V32.531H132.849V28.8948L134.311 27.1707L137.682 32.531H143.723ZM150.173 32.9072C151.985 32.9072 153.194 32.4683 153.798 31.9041L152.844 28.2679C152.685 28.4559 152.144 28.644 151.604 28.644C150.777 28.644 150.269 27.9857 150.269 27.108V21.5596H153.384V17.3905H150.269V13.2527H145.372V17.3905H142.829V21.5596H145.372V28.4559C145.372 31.3712 147.057 32.9072 150.173 32.9072Z" fill="white"/>
<defs>
<linearGradient id="paint0_linear_3138_13476" x1="18.4169" y1="19.6639" x2="24.9084" y2="59.9116" gradientUnits="userSpaceOnUse">
<stop stop-color="white"/>
<stop offset="1" stop-color="#6D6D6D"/>
</linearGradient>
</defs>
</svg>
