<svg width="25" height="24" viewBox="0 0 25 24" fill="none" xmlns="http://www.w3.org/2000/svg">
<path d="M7.86671 5.75977C6.21176 5.75977 4.62459 6.41719 3.45436 7.58742C2.28414 8.75765 1.62671 10.3448 1.62671 11.9998C1.62671 13.6547 2.28414 15.2419 3.45436 16.4121C4.62459 17.5823 6.21176 18.2398 7.86671 18.2398C9.52166 18.2398 11.1088 17.5823 12.2791 16.4121C13.4493 15.2419 14.1067 13.6547 14.1067 11.9998C14.1067 10.3448 13.4493 8.75765 12.2791 7.58742C11.1088 6.41719 9.52166 5.75977 7.86671 5.75977ZM17.7067 6.23977C15.9835 6.23977 14.5867 8.81881 14.5867 11.9998C14.5867 12.5964 14.6357 13.1714 14.7269 13.7124C14.8483 14.4338 15.0446 15.0943 15.299 15.6636C15.4262 15.9482 15.5678 16.2098 15.7219 16.4446C16.0301 16.914 16.3881 17.2764 16.7789 17.501C17.0721 17.669 17.3837 17.7598 17.7067 17.7598C18.0297 17.7598 18.3413 17.669 18.6345 17.501C19.0253 17.2764 19.3833 16.914 19.6915 16.4446C19.8456 16.2098 19.9872 15.9482 20.1144 15.6636C20.3688 15.0948 20.5651 14.4338 20.6865 13.7124C20.7777 13.1714 20.8267 12.5964 20.8267 11.9998C20.8267 8.81881 19.4299 6.23977 17.7067 6.23977ZM22.5067 6.71977C22.3824 6.71977 22.2624 6.80281 22.1501 6.95737C22.0747 7.06009 22.0027 7.19449 21.935 7.35721C21.9009 7.43833 21.8678 7.52665 21.8361 7.62169C21.7723 7.81129 21.7128 8.02777 21.6585 8.26633C21.5501 8.74393 21.4622 9.31321 21.4013 9.94489C21.371 10.2607 21.3475 10.5924 21.3312 10.9361C21.3149 11.2793 21.3067 11.6354 21.3067 11.9998C21.3067 12.3641 21.3149 12.7202 21.3312 13.0639C21.347 13.4076 21.3705 13.7393 21.4013 14.0551C21.4622 14.6868 21.5501 15.2556 21.6585 15.7337C21.7128 15.9727 21.7723 16.1887 21.8361 16.3783C21.8678 16.4734 21.9009 16.5617 21.935 16.6428C22.0032 16.8055 22.0752 16.9399 22.1501 17.0426C22.2624 17.1967 22.3824 17.2798 22.5067 17.2798C23.1696 17.2798 23.7067 14.9158 23.7067 11.9998C23.7067 9.08377 23.1696 6.71977 22.5067 6.71977Z" fill="white"/>
</svg>
