<svg width="25" height="24" viewBox="0 0 25 24" fill="none" xmlns="http://www.w3.org/2000/svg">
<path fill-rule="evenodd" clip-rule="evenodd" d="M6.09864 11.8734C9.59688 10.3493 11.9296 9.34452 13.0968 8.85905C16.4293 7.47294 17.1218 7.23216 17.5731 7.22421C17.6724 7.22246 17.8943 7.24706 18.0381 7.36372C18.1595 7.46223 18.1929 7.5953 18.2089 7.6887C18.2249 7.78209 18.2448 7.99485 18.229 8.1611C18.0484 10.0586 17.267 14.6633 16.8694 16.7885C16.7012 17.6877 16.37 17.9893 16.0493 18.0188C15.3525 18.0829 14.8233 17.5582 14.1484 17.1158C13.0922 16.4235 12.4955 15.9925 11.4704 15.3169C10.2856 14.5362 11.0536 14.1071 11.7288 13.4058C11.9055 13.2222 14.9759 10.4295 15.0353 10.1761C15.0428 10.1444 15.0497 10.0263 14.9795 9.96397C14.9093 9.90161 14.8058 9.92293 14.7311 9.93989C14.6251 9.96394 12.9379 11.0791 9.66939 13.2855C9.19048 13.6143 8.75669 13.7746 8.36804 13.7662C7.93957 13.7569 7.11538 13.5239 6.50269 13.3247C5.75118 13.0805 5.15391 12.9513 5.20592 12.5364C5.23301 12.3203 5.53058 12.0993 6.09864 11.8734Z" fill="white"/>
</svg>
