<svg width="25" height="24" viewBox="0 0 25 24" fill="none" xmlns="http://www.w3.org/2000/svg">
<path d="M21.6395 6.7174C21.1751 7.33692 20.6138 7.87733 19.9771 8.31776C19.9771 8.47959 19.9771 8.64142 19.9771 8.81225C19.9822 11.7511 18.8082 14.5691 16.7185 16.6345C14.6287 18.6999 11.7979 19.8399 8.8608 19.7989C7.16274 19.8046 5.48642 19.4169 3.96317 18.6661C3.88103 18.6302 3.82806 18.549 3.82837 18.4593V18.3604C3.82837 18.2313 3.93298 18.1267 4.06202 18.1267C5.73117 18.0716 7.34077 17.4929 8.66309 16.4724C7.15228 16.4419 5.79294 15.5469 5.16735 14.1707C5.13576 14.0956 5.14559 14.0093 5.19332 13.9432C5.24104 13.8771 5.31975 13.8407 5.401 13.8471C5.86017 13.8932 6.32393 13.8505 6.76695 13.7212C5.09914 13.375 3.84596 11.9904 3.66661 10.2957C3.66024 10.2144 3.69667 10.1357 3.76275 10.0879C3.82882 10.0402 3.91499 10.0303 3.99013 10.062C4.43769 10.2595 4.92084 10.3635 5.40999 10.3676C3.94859 9.40846 3.31736 7.58405 3.8733 5.92622C3.93069 5.76513 4.06856 5.64612 4.23625 5.61294C4.40393 5.57975 4.57671 5.63728 4.69107 5.76439C6.66314 7.86325 9.37279 9.11396 12.2486 9.25279C12.175 8.95885 12.1389 8.65676 12.1409 8.35372C12.1678 6.76472 13.1509 5.34921 14.6301 4.76987C16.1093 4.19054 17.7916 4.56203 18.8897 5.71044C19.6381 5.56785 20.3618 5.31645 21.0375 4.96421C21.087 4.93331 21.1497 4.93331 21.1992 4.96421C21.2301 5.01373 21.2301 5.07652 21.1992 5.12604C20.872 5.87552 20.319 6.50412 19.6176 6.92419C20.2318 6.85296 20.8352 6.70807 21.4149 6.49264C21.4637 6.45942 21.5279 6.45942 21.5767 6.49264C21.6175 6.51134 21.6481 6.54711 21.6602 6.59042C21.6723 6.63373 21.6647 6.68018 21.6395 6.7174Z" fill="white"/>
</svg>
